G04 #@! TF.GenerationSoftware,KiCad,Pcbnew,9.0.8-9.0.8~ubuntu25.10.1*
G04 #@! TF.CreationDate,2026-04-20T17:10:35-04:00*
G04 #@! TF.ProjectId,ICL7107_EVM,49434c37-3130-4375-9f45-564d2e6b6963,rev0*
G04 #@! TF.SameCoordinates,Original*
G04 #@! TF.FileFunction,Profile,NP*
%FSLAX46Y46*%
G04 Gerber Fmt 4.6, Leading zero omitted, Abs format (unit mm)*
G04 Created by KiCad (PCBNEW 9.0.8-9.0.8~ubuntu25.10.1) date 2026-04-20 17:10:35*
%MOMM*%
%LPD*%
G01*
G04 APERTURE LIST*
%ADD10C,0.100000*%
%ADD11C,0.150000*%
%ADD12C,0.300000*%
%ADD13C,0.400000*%
G04 #@! TA.AperFunction,Profile*
%ADD14C,0.100000*%
G04 #@! TD*
G04 APERTURE END LIST*
D10*
D11*
X159400000Y-171900000D02*
X267400000Y-171900000D01*
X267400000Y-203900000D01*
X159400000Y-203900000D01*
X159400000Y-171900000D01*
D10*
D11*
X10000000Y-10000000D02*
X269400000Y-10000000D01*
X269400000Y-205900000D01*
X10000000Y-205900000D01*
X10000000Y-10000000D01*
D10*
D11*
X12000000Y-12000000D02*
X267400000Y-12000000D01*
X267400000Y-203900000D01*
X12000000Y-203900000D01*
X12000000Y-12000000D01*
D10*
D11*
X60000000Y-12000000D02*
X60000000Y-10000000D01*
D10*
D11*
X110000000Y-12000000D02*
X110000000Y-10000000D01*
D10*
D11*
X160000000Y-12000000D02*
X160000000Y-10000000D01*
D10*
D11*
X210000000Y-12000000D02*
X210000000Y-10000000D01*
D10*
D11*
X260000000Y-12000000D02*
X260000000Y-10000000D01*
D10*
D11*
X36089160Y-11593604D02*
X35346303Y-11593604D01*
X35717731Y-11593604D02*
X35717731Y-10293604D01*
X35717731Y-10293604D02*
X35593922Y-10479319D01*
X35593922Y-10479319D02*
X35470112Y-10603128D01*
X35470112Y-10603128D02*
X35346303Y-10665033D01*
D10*
D11*
X85346303Y-10417414D02*
X85408207Y-10355509D01*
X85408207Y-10355509D02*
X85532017Y-10293604D01*
X85532017Y-10293604D02*
X85841541Y-10293604D01*
X85841541Y-10293604D02*
X85965350Y-10355509D01*
X85965350Y-10355509D02*
X86027255Y-10417414D01*
X86027255Y-10417414D02*
X86089160Y-10541223D01*
X86089160Y-10541223D02*
X86089160Y-10665033D01*
X86089160Y-10665033D02*
X86027255Y-10850747D01*
X86027255Y-10850747D02*
X85284398Y-11593604D01*
X85284398Y-11593604D02*
X86089160Y-11593604D01*
D10*
D11*
X135284398Y-10293604D02*
X136089160Y-10293604D01*
X136089160Y-10293604D02*
X135655826Y-10788842D01*
X135655826Y-10788842D02*
X135841541Y-10788842D01*
X135841541Y-10788842D02*
X135965350Y-10850747D01*
X135965350Y-10850747D02*
X136027255Y-10912652D01*
X136027255Y-10912652D02*
X136089160Y-11036461D01*
X136089160Y-11036461D02*
X136089160Y-11345985D01*
X136089160Y-11345985D02*
X136027255Y-11469795D01*
X136027255Y-11469795D02*
X135965350Y-11531700D01*
X135965350Y-11531700D02*
X135841541Y-11593604D01*
X135841541Y-11593604D02*
X135470112Y-11593604D01*
X135470112Y-11593604D02*
X135346303Y-11531700D01*
X135346303Y-11531700D02*
X135284398Y-11469795D01*
D10*
D11*
X185965350Y-10726938D02*
X185965350Y-11593604D01*
X185655826Y-10231700D02*
X185346303Y-11160271D01*
X185346303Y-11160271D02*
X186151064Y-11160271D01*
D10*
D11*
X236027255Y-10293604D02*
X235408207Y-10293604D01*
X235408207Y-10293604D02*
X235346303Y-10912652D01*
X235346303Y-10912652D02*
X235408207Y-10850747D01*
X235408207Y-10850747D02*
X235532017Y-10788842D01*
X235532017Y-10788842D02*
X235841541Y-10788842D01*
X235841541Y-10788842D02*
X235965350Y-10850747D01*
X235965350Y-10850747D02*
X236027255Y-10912652D01*
X236027255Y-10912652D02*
X236089160Y-11036461D01*
X236089160Y-11036461D02*
X236089160Y-11345985D01*
X236089160Y-11345985D02*
X236027255Y-11469795D01*
X236027255Y-11469795D02*
X235965350Y-11531700D01*
X235965350Y-11531700D02*
X235841541Y-11593604D01*
X235841541Y-11593604D02*
X235532017Y-11593604D01*
X235532017Y-11593604D02*
X235408207Y-11531700D01*
X235408207Y-11531700D02*
X235346303Y-11469795D01*
D10*
D11*
X60000000Y-203900000D02*
X60000000Y-205900000D01*
D10*
D11*
X110000000Y-203900000D02*
X110000000Y-205900000D01*
D10*
D11*
X160000000Y-203900000D02*
X160000000Y-205900000D01*
D10*
D11*
X210000000Y-203900000D02*
X210000000Y-205900000D01*
D10*
D11*
X260000000Y-203900000D02*
X260000000Y-205900000D01*
D10*
D11*
X36089160Y-205493604D02*
X35346303Y-205493604D01*
X35717731Y-205493604D02*
X35717731Y-204193604D01*
X35717731Y-204193604D02*
X35593922Y-204379319D01*
X35593922Y-204379319D02*
X35470112Y-204503128D01*
X35470112Y-204503128D02*
X35346303Y-204565033D01*
D10*
D11*
X85346303Y-204317414D02*
X85408207Y-204255509D01*
X85408207Y-204255509D02*
X85532017Y-204193604D01*
X85532017Y-204193604D02*
X85841541Y-204193604D01*
X85841541Y-204193604D02*
X85965350Y-204255509D01*
X85965350Y-204255509D02*
X86027255Y-204317414D01*
X86027255Y-204317414D02*
X86089160Y-204441223D01*
X86089160Y-204441223D02*
X86089160Y-204565033D01*
X86089160Y-204565033D02*
X86027255Y-204750747D01*
X86027255Y-204750747D02*
X85284398Y-205493604D01*
X85284398Y-205493604D02*
X86089160Y-205493604D01*
D10*
D11*
X135284398Y-204193604D02*
X136089160Y-204193604D01*
X136089160Y-204193604D02*
X135655826Y-204688842D01*
X135655826Y-204688842D02*
X135841541Y-204688842D01*
X135841541Y-204688842D02*
X135965350Y-204750747D01*
X135965350Y-204750747D02*
X136027255Y-204812652D01*
X136027255Y-204812652D02*
X136089160Y-204936461D01*
X136089160Y-204936461D02*
X136089160Y-205245985D01*
X136089160Y-205245985D02*
X136027255Y-205369795D01*
X136027255Y-205369795D02*
X135965350Y-205431700D01*
X135965350Y-205431700D02*
X135841541Y-205493604D01*
X135841541Y-205493604D02*
X135470112Y-205493604D01*
X135470112Y-205493604D02*
X135346303Y-205431700D01*
X135346303Y-205431700D02*
X135284398Y-205369795D01*
D10*
D11*
X185965350Y-204626938D02*
X185965350Y-205493604D01*
X185655826Y-204131700D02*
X185346303Y-205060271D01*
X185346303Y-205060271D02*
X186151064Y-205060271D01*
D10*
D11*
X236027255Y-204193604D02*
X235408207Y-204193604D01*
X235408207Y-204193604D02*
X235346303Y-204812652D01*
X235346303Y-204812652D02*
X235408207Y-204750747D01*
X235408207Y-204750747D02*
X235532017Y-204688842D01*
X235532017Y-204688842D02*
X235841541Y-204688842D01*
X235841541Y-204688842D02*
X235965350Y-204750747D01*
X235965350Y-204750747D02*
X236027255Y-204812652D01*
X236027255Y-204812652D02*
X236089160Y-204936461D01*
X236089160Y-204936461D02*
X236089160Y-205245985D01*
X236089160Y-205245985D02*
X236027255Y-205369795D01*
X236027255Y-205369795D02*
X235965350Y-205431700D01*
X235965350Y-205431700D02*
X235841541Y-205493604D01*
X235841541Y-205493604D02*
X235532017Y-205493604D01*
X235532017Y-205493604D02*
X235408207Y-205431700D01*
X235408207Y-205431700D02*
X235346303Y-205369795D01*
D10*
D11*
X10000000Y-60000000D02*
X12000000Y-60000000D01*
D10*
D11*
X10000000Y-110000000D02*
X12000000Y-110000000D01*
D10*
D11*
X10000000Y-160000000D02*
X12000000Y-160000000D01*
D10*
D11*
X10690476Y-35222176D02*
X11309523Y-35222176D01*
X10566666Y-35593604D02*
X10999999Y-34293604D01*
X10999999Y-34293604D02*
X11433333Y-35593604D01*
D10*
D11*
X11092857Y-84912652D02*
X11278571Y-84974557D01*
X11278571Y-84974557D02*
X11340476Y-85036461D01*
X11340476Y-85036461D02*
X11402380Y-85160271D01*
X11402380Y-85160271D02*
X11402380Y-85345985D01*
X11402380Y-85345985D02*
X11340476Y-85469795D01*
X11340476Y-85469795D02*
X11278571Y-85531700D01*
X11278571Y-85531700D02*
X11154761Y-85593604D01*
X11154761Y-85593604D02*
X10659523Y-85593604D01*
X10659523Y-85593604D02*
X10659523Y-84293604D01*
X10659523Y-84293604D02*
X11092857Y-84293604D01*
X11092857Y-84293604D02*
X11216666Y-84355509D01*
X11216666Y-84355509D02*
X11278571Y-84417414D01*
X11278571Y-84417414D02*
X11340476Y-84541223D01*
X11340476Y-84541223D02*
X11340476Y-84665033D01*
X11340476Y-84665033D02*
X11278571Y-84788842D01*
X11278571Y-84788842D02*
X11216666Y-84850747D01*
X11216666Y-84850747D02*
X11092857Y-84912652D01*
X11092857Y-84912652D02*
X10659523Y-84912652D01*
D10*
D11*
X11402380Y-135469795D02*
X11340476Y-135531700D01*
X11340476Y-135531700D02*
X11154761Y-135593604D01*
X11154761Y-135593604D02*
X11030952Y-135593604D01*
X11030952Y-135593604D02*
X10845238Y-135531700D01*
X10845238Y-135531700D02*
X10721428Y-135407890D01*
X10721428Y-135407890D02*
X10659523Y-135284080D01*
X10659523Y-135284080D02*
X10597619Y-135036461D01*
X10597619Y-135036461D02*
X10597619Y-134850747D01*
X10597619Y-134850747D02*
X10659523Y-134603128D01*
X10659523Y-134603128D02*
X10721428Y-134479319D01*
X10721428Y-134479319D02*
X10845238Y-134355509D01*
X10845238Y-134355509D02*
X11030952Y-134293604D01*
X11030952Y-134293604D02*
X11154761Y-134293604D01*
X11154761Y-134293604D02*
X11340476Y-134355509D01*
X11340476Y-134355509D02*
X11402380Y-134417414D01*
D10*
D11*
X10659523Y-185593604D02*
X10659523Y-184293604D01*
X10659523Y-184293604D02*
X10969047Y-184293604D01*
X10969047Y-184293604D02*
X11154761Y-184355509D01*
X11154761Y-184355509D02*
X11278571Y-184479319D01*
X11278571Y-184479319D02*
X11340476Y-184603128D01*
X11340476Y-184603128D02*
X11402380Y-184850747D01*
X11402380Y-184850747D02*
X11402380Y-185036461D01*
X11402380Y-185036461D02*
X11340476Y-185284080D01*
X11340476Y-185284080D02*
X11278571Y-185407890D01*
X11278571Y-185407890D02*
X11154761Y-185531700D01*
X11154761Y-185531700D02*
X10969047Y-185593604D01*
X10969047Y-185593604D02*
X10659523Y-185593604D01*
D10*
D11*
X269400000Y-60000000D02*
X267400000Y-60000000D01*
D10*
D11*
X269400000Y-110000000D02*
X267400000Y-110000000D01*
D10*
D11*
X269400000Y-160000000D02*
X267400000Y-160000000D01*
D10*
D11*
X268090476Y-35222176D02*
X268709523Y-35222176D01*
X267966666Y-35593604D02*
X268399999Y-34293604D01*
X268399999Y-34293604D02*
X268833333Y-35593604D01*
D10*
D11*
X268492857Y-84912652D02*
X268678571Y-84974557D01*
X268678571Y-84974557D02*
X268740476Y-85036461D01*
X268740476Y-85036461D02*
X268802380Y-85160271D01*
X268802380Y-85160271D02*
X268802380Y-85345985D01*
X268802380Y-85345985D02*
X268740476Y-85469795D01*
X268740476Y-85469795D02*
X268678571Y-85531700D01*
X268678571Y-85531700D02*
X268554761Y-85593604D01*
X268554761Y-85593604D02*
X268059523Y-85593604D01*
X268059523Y-85593604D02*
X268059523Y-84293604D01*
X268059523Y-84293604D02*
X268492857Y-84293604D01*
X268492857Y-84293604D02*
X268616666Y-84355509D01*
X268616666Y-84355509D02*
X268678571Y-84417414D01*
X268678571Y-84417414D02*
X268740476Y-84541223D01*
X268740476Y-84541223D02*
X268740476Y-84665033D01*
X268740476Y-84665033D02*
X268678571Y-84788842D01*
X268678571Y-84788842D02*
X268616666Y-84850747D01*
X268616666Y-84850747D02*
X268492857Y-84912652D01*
X268492857Y-84912652D02*
X268059523Y-84912652D01*
D10*
D11*
X268802380Y-135469795D02*
X268740476Y-135531700D01*
X268740476Y-135531700D02*
X268554761Y-135593604D01*
X268554761Y-135593604D02*
X268430952Y-135593604D01*
X268430952Y-135593604D02*
X268245238Y-135531700D01*
X268245238Y-135531700D02*
X268121428Y-135407890D01*
X268121428Y-135407890D02*
X268059523Y-135284080D01*
X268059523Y-135284080D02*
X267997619Y-135036461D01*
X267997619Y-135036461D02*
X267997619Y-134850747D01*
X267997619Y-134850747D02*
X268059523Y-134603128D01*
X268059523Y-134603128D02*
X268121428Y-134479319D01*
X268121428Y-134479319D02*
X268245238Y-134355509D01*
X268245238Y-134355509D02*
X268430952Y-134293604D01*
X268430952Y-134293604D02*
X268554761Y-134293604D01*
X268554761Y-134293604D02*
X268740476Y-134355509D01*
X268740476Y-134355509D02*
X268802380Y-134417414D01*
D10*
D11*
X268059523Y-185593604D02*
X268059523Y-184293604D01*
X268059523Y-184293604D02*
X268369047Y-184293604D01*
X268369047Y-184293604D02*
X268554761Y-184355509D01*
X268554761Y-184355509D02*
X268678571Y-184479319D01*
X268678571Y-184479319D02*
X268740476Y-184603128D01*
X268740476Y-184603128D02*
X268802380Y-184850747D01*
X268802380Y-184850747D02*
X268802380Y-185036461D01*
X268802380Y-185036461D02*
X268740476Y-185284080D01*
X268740476Y-185284080D02*
X268678571Y-185407890D01*
X268678571Y-185407890D02*
X268554761Y-185531700D01*
X268554761Y-185531700D02*
X268369047Y-185593604D01*
X268369047Y-185593604D02*
X268059523Y-185593604D01*
D10*
D11*
X182855826Y-199686128D02*
X182855826Y-198186128D01*
X182855826Y-198186128D02*
X183212969Y-198186128D01*
X183212969Y-198186128D02*
X183427255Y-198257557D01*
X183427255Y-198257557D02*
X183570112Y-198400414D01*
X183570112Y-198400414D02*
X183641541Y-198543271D01*
X183641541Y-198543271D02*
X183712969Y-198828985D01*
X183712969Y-198828985D02*
X183712969Y-199043271D01*
X183712969Y-199043271D02*
X183641541Y-199328985D01*
X183641541Y-199328985D02*
X183570112Y-199471842D01*
X183570112Y-199471842D02*
X183427255Y-199614700D01*
X183427255Y-199614700D02*
X183212969Y-199686128D01*
X183212969Y-199686128D02*
X182855826Y-199686128D01*
X184998684Y-199686128D02*
X184998684Y-198900414D01*
X184998684Y-198900414D02*
X184927255Y-198757557D01*
X184927255Y-198757557D02*
X184784398Y-198686128D01*
X184784398Y-198686128D02*
X184498684Y-198686128D01*
X184498684Y-198686128D02*
X184355826Y-198757557D01*
X184998684Y-199614700D02*
X184855826Y-199686128D01*
X184855826Y-199686128D02*
X184498684Y-199686128D01*
X184498684Y-199686128D02*
X184355826Y-199614700D01*
X184355826Y-199614700D02*
X184284398Y-199471842D01*
X184284398Y-199471842D02*
X184284398Y-199328985D01*
X184284398Y-199328985D02*
X184355826Y-199186128D01*
X184355826Y-199186128D02*
X184498684Y-199114700D01*
X184498684Y-199114700D02*
X184855826Y-199114700D01*
X184855826Y-199114700D02*
X184998684Y-199043271D01*
X185498684Y-198686128D02*
X186070112Y-198686128D01*
X185712969Y-198186128D02*
X185712969Y-199471842D01*
X185712969Y-199471842D02*
X185784398Y-199614700D01*
X185784398Y-199614700D02*
X185927255Y-199686128D01*
X185927255Y-199686128D02*
X186070112Y-199686128D01*
X187141541Y-199614700D02*
X186998684Y-199686128D01*
X186998684Y-199686128D02*
X186712970Y-199686128D01*
X186712970Y-199686128D02*
X186570112Y-199614700D01*
X186570112Y-199614700D02*
X186498684Y-199471842D01*
X186498684Y-199471842D02*
X186498684Y-198900414D01*
X186498684Y-198900414D02*
X186570112Y-198757557D01*
X186570112Y-198757557D02*
X186712970Y-198686128D01*
X186712970Y-198686128D02*
X186998684Y-198686128D01*
X186998684Y-198686128D02*
X187141541Y-198757557D01*
X187141541Y-198757557D02*
X187212970Y-198900414D01*
X187212970Y-198900414D02*
X187212970Y-199043271D01*
X187212970Y-199043271D02*
X186498684Y-199186128D01*
X187855826Y-199543271D02*
X187927255Y-199614700D01*
X187927255Y-199614700D02*
X187855826Y-199686128D01*
X187855826Y-199686128D02*
X187784398Y-199614700D01*
X187784398Y-199614700D02*
X187855826Y-199543271D01*
X187855826Y-199543271D02*
X187855826Y-199686128D01*
X187855826Y-198757557D02*
X187927255Y-198828985D01*
X187927255Y-198828985D02*
X187855826Y-198900414D01*
X187855826Y-198900414D02*
X187784398Y-198828985D01*
X187784398Y-198828985D02*
X187855826Y-198757557D01*
X187855826Y-198757557D02*
X187855826Y-198900414D01*
X189641541Y-198328985D02*
X189712969Y-198257557D01*
X189712969Y-198257557D02*
X189855827Y-198186128D01*
X189855827Y-198186128D02*
X190212969Y-198186128D01*
X190212969Y-198186128D02*
X190355827Y-198257557D01*
X190355827Y-198257557D02*
X190427255Y-198328985D01*
X190427255Y-198328985D02*
X190498684Y-198471842D01*
X190498684Y-198471842D02*
X190498684Y-198614700D01*
X190498684Y-198614700D02*
X190427255Y-198828985D01*
X190427255Y-198828985D02*
X189570112Y-199686128D01*
X189570112Y-199686128D02*
X190498684Y-199686128D01*
X191427255Y-198186128D02*
X191570112Y-198186128D01*
X191570112Y-198186128D02*
X191712969Y-198257557D01*
X191712969Y-198257557D02*
X191784398Y-198328985D01*
X191784398Y-198328985D02*
X191855826Y-198471842D01*
X191855826Y-198471842D02*
X191927255Y-198757557D01*
X191927255Y-198757557D02*
X191927255Y-199114700D01*
X191927255Y-199114700D02*
X191855826Y-199400414D01*
X191855826Y-199400414D02*
X191784398Y-199543271D01*
X191784398Y-199543271D02*
X191712969Y-199614700D01*
X191712969Y-199614700D02*
X191570112Y-199686128D01*
X191570112Y-199686128D02*
X191427255Y-199686128D01*
X191427255Y-199686128D02*
X191284398Y-199614700D01*
X191284398Y-199614700D02*
X191212969Y-199543271D01*
X191212969Y-199543271D02*
X191141540Y-199400414D01*
X191141540Y-199400414D02*
X191070112Y-199114700D01*
X191070112Y-199114700D02*
X191070112Y-198757557D01*
X191070112Y-198757557D02*
X191141540Y-198471842D01*
X191141540Y-198471842D02*
X191212969Y-198328985D01*
X191212969Y-198328985D02*
X191284398Y-198257557D01*
X191284398Y-198257557D02*
X191427255Y-198186128D01*
X192498683Y-198328985D02*
X192570111Y-198257557D01*
X192570111Y-198257557D02*
X192712969Y-198186128D01*
X192712969Y-198186128D02*
X193070111Y-198186128D01*
X193070111Y-198186128D02*
X193212969Y-198257557D01*
X193212969Y-198257557D02*
X193284397Y-198328985D01*
X193284397Y-198328985D02*
X193355826Y-198471842D01*
X193355826Y-198471842D02*
X193355826Y-198614700D01*
X193355826Y-198614700D02*
X193284397Y-198828985D01*
X193284397Y-198828985D02*
X192427254Y-199686128D01*
X192427254Y-199686128D02*
X193355826Y-199686128D01*
X194641540Y-198186128D02*
X194355825Y-198186128D01*
X194355825Y-198186128D02*
X194212968Y-198257557D01*
X194212968Y-198257557D02*
X194141540Y-198328985D01*
X194141540Y-198328985D02*
X193998682Y-198543271D01*
X193998682Y-198543271D02*
X193927254Y-198828985D01*
X193927254Y-198828985D02*
X193927254Y-199400414D01*
X193927254Y-199400414D02*
X193998682Y-199543271D01*
X193998682Y-199543271D02*
X194070111Y-199614700D01*
X194070111Y-199614700D02*
X194212968Y-199686128D01*
X194212968Y-199686128D02*
X194498682Y-199686128D01*
X194498682Y-199686128D02*
X194641540Y-199614700D01*
X194641540Y-199614700D02*
X194712968Y-199543271D01*
X194712968Y-199543271D02*
X194784397Y-199400414D01*
X194784397Y-199400414D02*
X194784397Y-199043271D01*
X194784397Y-199043271D02*
X194712968Y-198900414D01*
X194712968Y-198900414D02*
X194641540Y-198828985D01*
X194641540Y-198828985D02*
X194498682Y-198757557D01*
X194498682Y-198757557D02*
X194212968Y-198757557D01*
X194212968Y-198757557D02*
X194070111Y-198828985D01*
X194070111Y-198828985D02*
X193998682Y-198900414D01*
X193998682Y-198900414D02*
X193927254Y-199043271D01*
X195427253Y-199114700D02*
X196570111Y-199114700D01*
X197570111Y-198186128D02*
X197712968Y-198186128D01*
X197712968Y-198186128D02*
X197855825Y-198257557D01*
X197855825Y-198257557D02*
X197927254Y-198328985D01*
X197927254Y-198328985D02*
X197998682Y-198471842D01*
X197998682Y-198471842D02*
X198070111Y-198757557D01*
X198070111Y-198757557D02*
X198070111Y-199114700D01*
X198070111Y-199114700D02*
X197998682Y-199400414D01*
X197998682Y-199400414D02*
X197927254Y-199543271D01*
X197927254Y-199543271D02*
X197855825Y-199614700D01*
X197855825Y-199614700D02*
X197712968Y-199686128D01*
X197712968Y-199686128D02*
X197570111Y-199686128D01*
X197570111Y-199686128D02*
X197427254Y-199614700D01*
X197427254Y-199614700D02*
X197355825Y-199543271D01*
X197355825Y-199543271D02*
X197284396Y-199400414D01*
X197284396Y-199400414D02*
X197212968Y-199114700D01*
X197212968Y-199114700D02*
X197212968Y-198757557D01*
X197212968Y-198757557D02*
X197284396Y-198471842D01*
X197284396Y-198471842D02*
X197355825Y-198328985D01*
X197355825Y-198328985D02*
X197427254Y-198257557D01*
X197427254Y-198257557D02*
X197570111Y-198186128D01*
X199355825Y-198686128D02*
X199355825Y-199686128D01*
X198998682Y-198114700D02*
X198641539Y-199186128D01*
X198641539Y-199186128D02*
X199570110Y-199186128D01*
X200141538Y-199114700D02*
X201284396Y-199114700D01*
X201927253Y-198328985D02*
X201998681Y-198257557D01*
X201998681Y-198257557D02*
X202141539Y-198186128D01*
X202141539Y-198186128D02*
X202498681Y-198186128D01*
X202498681Y-198186128D02*
X202641539Y-198257557D01*
X202641539Y-198257557D02*
X202712967Y-198328985D01*
X202712967Y-198328985D02*
X202784396Y-198471842D01*
X202784396Y-198471842D02*
X202784396Y-198614700D01*
X202784396Y-198614700D02*
X202712967Y-198828985D01*
X202712967Y-198828985D02*
X201855824Y-199686128D01*
X201855824Y-199686128D02*
X202784396Y-199686128D01*
X203712967Y-198186128D02*
X203855824Y-198186128D01*
X203855824Y-198186128D02*
X203998681Y-198257557D01*
X203998681Y-198257557D02*
X204070110Y-198328985D01*
X204070110Y-198328985D02*
X204141538Y-198471842D01*
X204141538Y-198471842D02*
X204212967Y-198757557D01*
X204212967Y-198757557D02*
X204212967Y-199114700D01*
X204212967Y-199114700D02*
X204141538Y-199400414D01*
X204141538Y-199400414D02*
X204070110Y-199543271D01*
X204070110Y-199543271D02*
X203998681Y-199614700D01*
X203998681Y-199614700D02*
X203855824Y-199686128D01*
X203855824Y-199686128D02*
X203712967Y-199686128D01*
X203712967Y-199686128D02*
X203570110Y-199614700D01*
X203570110Y-199614700D02*
X203498681Y-199543271D01*
X203498681Y-199543271D02*
X203427252Y-199400414D01*
X203427252Y-199400414D02*
X203355824Y-199114700D01*
X203355824Y-199114700D02*
X203355824Y-198757557D01*
X203355824Y-198757557D02*
X203427252Y-198471842D01*
X203427252Y-198471842D02*
X203498681Y-198328985D01*
X203498681Y-198328985D02*
X203570110Y-198257557D01*
X203570110Y-198257557D02*
X203712967Y-198186128D01*
D10*
D11*
X159400000Y-200400000D02*
X267400000Y-200400000D01*
D10*
D11*
X160855826Y-202486128D02*
X160855826Y-200986128D01*
X161712969Y-202486128D02*
X161070112Y-201628985D01*
X161712969Y-200986128D02*
X160855826Y-201843271D01*
X162355826Y-202486128D02*
X162355826Y-201486128D01*
X162355826Y-200986128D02*
X162284398Y-201057557D01*
X162284398Y-201057557D02*
X162355826Y-201128985D01*
X162355826Y-201128985D02*
X162427255Y-201057557D01*
X162427255Y-201057557D02*
X162355826Y-200986128D01*
X162355826Y-200986128D02*
X162355826Y-201128985D01*
X163927255Y-202343271D02*
X163855827Y-202414700D01*
X163855827Y-202414700D02*
X163641541Y-202486128D01*
X163641541Y-202486128D02*
X163498684Y-202486128D01*
X163498684Y-202486128D02*
X163284398Y-202414700D01*
X163284398Y-202414700D02*
X163141541Y-202271842D01*
X163141541Y-202271842D02*
X163070112Y-202128985D01*
X163070112Y-202128985D02*
X162998684Y-201843271D01*
X162998684Y-201843271D02*
X162998684Y-201628985D01*
X162998684Y-201628985D02*
X163070112Y-201343271D01*
X163070112Y-201343271D02*
X163141541Y-201200414D01*
X163141541Y-201200414D02*
X163284398Y-201057557D01*
X163284398Y-201057557D02*
X163498684Y-200986128D01*
X163498684Y-200986128D02*
X163641541Y-200986128D01*
X163641541Y-200986128D02*
X163855827Y-201057557D01*
X163855827Y-201057557D02*
X163927255Y-201128985D01*
X165212970Y-202486128D02*
X165212970Y-201700414D01*
X165212970Y-201700414D02*
X165141541Y-201557557D01*
X165141541Y-201557557D02*
X164998684Y-201486128D01*
X164998684Y-201486128D02*
X164712970Y-201486128D01*
X164712970Y-201486128D02*
X164570112Y-201557557D01*
X165212970Y-202414700D02*
X165070112Y-202486128D01*
X165070112Y-202486128D02*
X164712970Y-202486128D01*
X164712970Y-202486128D02*
X164570112Y-202414700D01*
X164570112Y-202414700D02*
X164498684Y-202271842D01*
X164498684Y-202271842D02*
X164498684Y-202128985D01*
X164498684Y-202128985D02*
X164570112Y-201986128D01*
X164570112Y-201986128D02*
X164712970Y-201914700D01*
X164712970Y-201914700D02*
X165070112Y-201914700D01*
X165070112Y-201914700D02*
X165212970Y-201843271D01*
X166570113Y-202486128D02*
X166570113Y-200986128D01*
X166570113Y-202414700D02*
X166427255Y-202486128D01*
X166427255Y-202486128D02*
X166141541Y-202486128D01*
X166141541Y-202486128D02*
X165998684Y-202414700D01*
X165998684Y-202414700D02*
X165927255Y-202343271D01*
X165927255Y-202343271D02*
X165855827Y-202200414D01*
X165855827Y-202200414D02*
X165855827Y-201771842D01*
X165855827Y-201771842D02*
X165927255Y-201628985D01*
X165927255Y-201628985D02*
X165998684Y-201557557D01*
X165998684Y-201557557D02*
X166141541Y-201486128D01*
X166141541Y-201486128D02*
X166427255Y-201486128D01*
X166427255Y-201486128D02*
X166570113Y-201557557D01*
X168427255Y-201700414D02*
X168927255Y-201700414D01*
X169141541Y-202486128D02*
X168427255Y-202486128D01*
X168427255Y-202486128D02*
X168427255Y-200986128D01*
X168427255Y-200986128D02*
X169141541Y-200986128D01*
X169784398Y-202343271D02*
X169855827Y-202414700D01*
X169855827Y-202414700D02*
X169784398Y-202486128D01*
X169784398Y-202486128D02*
X169712970Y-202414700D01*
X169712970Y-202414700D02*
X169784398Y-202343271D01*
X169784398Y-202343271D02*
X169784398Y-202486128D01*
X170498684Y-202486128D02*
X170498684Y-200986128D01*
X170498684Y-200986128D02*
X170855827Y-200986128D01*
X170855827Y-200986128D02*
X171070113Y-201057557D01*
X171070113Y-201057557D02*
X171212970Y-201200414D01*
X171212970Y-201200414D02*
X171284399Y-201343271D01*
X171284399Y-201343271D02*
X171355827Y-201628985D01*
X171355827Y-201628985D02*
X171355827Y-201843271D01*
X171355827Y-201843271D02*
X171284399Y-202128985D01*
X171284399Y-202128985D02*
X171212970Y-202271842D01*
X171212970Y-202271842D02*
X171070113Y-202414700D01*
X171070113Y-202414700D02*
X170855827Y-202486128D01*
X170855827Y-202486128D02*
X170498684Y-202486128D01*
X171998684Y-202343271D02*
X172070113Y-202414700D01*
X172070113Y-202414700D02*
X171998684Y-202486128D01*
X171998684Y-202486128D02*
X171927256Y-202414700D01*
X171927256Y-202414700D02*
X171998684Y-202343271D01*
X171998684Y-202343271D02*
X171998684Y-202486128D01*
X172641542Y-202057557D02*
X173355828Y-202057557D01*
X172498685Y-202486128D02*
X172998685Y-200986128D01*
X172998685Y-200986128D02*
X173498685Y-202486128D01*
X173998684Y-202343271D02*
X174070113Y-202414700D01*
X174070113Y-202414700D02*
X173998684Y-202486128D01*
X173998684Y-202486128D02*
X173927256Y-202414700D01*
X173927256Y-202414700D02*
X173998684Y-202343271D01*
X173998684Y-202343271D02*
X173998684Y-202486128D01*
X175927256Y-202486128D02*
X176212970Y-202486128D01*
X176212970Y-202486128D02*
X176355827Y-202414700D01*
X176355827Y-202414700D02*
X176427256Y-202343271D01*
X176427256Y-202343271D02*
X176570113Y-202128985D01*
X176570113Y-202128985D02*
X176641542Y-201843271D01*
X176641542Y-201843271D02*
X176641542Y-201271842D01*
X176641542Y-201271842D02*
X176570113Y-201128985D01*
X176570113Y-201128985D02*
X176498685Y-201057557D01*
X176498685Y-201057557D02*
X176355827Y-200986128D01*
X176355827Y-200986128D02*
X176070113Y-200986128D01*
X176070113Y-200986128D02*
X175927256Y-201057557D01*
X175927256Y-201057557D02*
X175855827Y-201128985D01*
X175855827Y-201128985D02*
X175784399Y-201271842D01*
X175784399Y-201271842D02*
X175784399Y-201628985D01*
X175784399Y-201628985D02*
X175855827Y-201771842D01*
X175855827Y-201771842D02*
X175927256Y-201843271D01*
X175927256Y-201843271D02*
X176070113Y-201914700D01*
X176070113Y-201914700D02*
X176355827Y-201914700D01*
X176355827Y-201914700D02*
X176498685Y-201843271D01*
X176498685Y-201843271D02*
X176570113Y-201771842D01*
X176570113Y-201771842D02*
X176641542Y-201628985D01*
X177284398Y-202343271D02*
X177355827Y-202414700D01*
X177355827Y-202414700D02*
X177284398Y-202486128D01*
X177284398Y-202486128D02*
X177212970Y-202414700D01*
X177212970Y-202414700D02*
X177284398Y-202343271D01*
X177284398Y-202343271D02*
X177284398Y-202486128D01*
X178284399Y-200986128D02*
X178427256Y-200986128D01*
X178427256Y-200986128D02*
X178570113Y-201057557D01*
X178570113Y-201057557D02*
X178641542Y-201128985D01*
X178641542Y-201128985D02*
X178712970Y-201271842D01*
X178712970Y-201271842D02*
X178784399Y-201557557D01*
X178784399Y-201557557D02*
X178784399Y-201914700D01*
X178784399Y-201914700D02*
X178712970Y-202200414D01*
X178712970Y-202200414D02*
X178641542Y-202343271D01*
X178641542Y-202343271D02*
X178570113Y-202414700D01*
X178570113Y-202414700D02*
X178427256Y-202486128D01*
X178427256Y-202486128D02*
X178284399Y-202486128D01*
X178284399Y-202486128D02*
X178141542Y-202414700D01*
X178141542Y-202414700D02*
X178070113Y-202343271D01*
X178070113Y-202343271D02*
X177998684Y-202200414D01*
X177998684Y-202200414D02*
X177927256Y-201914700D01*
X177927256Y-201914700D02*
X177927256Y-201557557D01*
X177927256Y-201557557D02*
X177998684Y-201271842D01*
X177998684Y-201271842D02*
X178070113Y-201128985D01*
X178070113Y-201128985D02*
X178141542Y-201057557D01*
X178141542Y-201057557D02*
X178284399Y-200986128D01*
X179427255Y-202343271D02*
X179498684Y-202414700D01*
X179498684Y-202414700D02*
X179427255Y-202486128D01*
X179427255Y-202486128D02*
X179355827Y-202414700D01*
X179355827Y-202414700D02*
X179427255Y-202343271D01*
X179427255Y-202343271D02*
X179427255Y-202486128D01*
X180355827Y-201628985D02*
X180212970Y-201557557D01*
X180212970Y-201557557D02*
X180141541Y-201486128D01*
X180141541Y-201486128D02*
X180070113Y-201343271D01*
X180070113Y-201343271D02*
X180070113Y-201271842D01*
X180070113Y-201271842D02*
X180141541Y-201128985D01*
X180141541Y-201128985D02*
X180212970Y-201057557D01*
X180212970Y-201057557D02*
X180355827Y-200986128D01*
X180355827Y-200986128D02*
X180641541Y-200986128D01*
X180641541Y-200986128D02*
X180784399Y-201057557D01*
X180784399Y-201057557D02*
X180855827Y-201128985D01*
X180855827Y-201128985D02*
X180927256Y-201271842D01*
X180927256Y-201271842D02*
X180927256Y-201343271D01*
X180927256Y-201343271D02*
X180855827Y-201486128D01*
X180855827Y-201486128D02*
X180784399Y-201557557D01*
X180784399Y-201557557D02*
X180641541Y-201628985D01*
X180641541Y-201628985D02*
X180355827Y-201628985D01*
X180355827Y-201628985D02*
X180212970Y-201700414D01*
X180212970Y-201700414D02*
X180141541Y-201771842D01*
X180141541Y-201771842D02*
X180070113Y-201914700D01*
X180070113Y-201914700D02*
X180070113Y-202200414D01*
X180070113Y-202200414D02*
X180141541Y-202343271D01*
X180141541Y-202343271D02*
X180212970Y-202414700D01*
X180212970Y-202414700D02*
X180355827Y-202486128D01*
X180355827Y-202486128D02*
X180641541Y-202486128D01*
X180641541Y-202486128D02*
X180784399Y-202414700D01*
X180784399Y-202414700D02*
X180855827Y-202343271D01*
X180855827Y-202343271D02*
X180927256Y-202200414D01*
X180927256Y-202200414D02*
X180927256Y-201914700D01*
X180927256Y-201914700D02*
X180855827Y-201771842D01*
X180855827Y-201771842D02*
X180784399Y-201700414D01*
X180784399Y-201700414D02*
X180641541Y-201628985D01*
D10*
D11*
X159400000Y-197400000D02*
X267400000Y-197400000D01*
D10*
D12*
X246811653Y-199678328D02*
X246311653Y-198964042D01*
X245954510Y-199678328D02*
X245954510Y-198178328D01*
X245954510Y-198178328D02*
X246525939Y-198178328D01*
X246525939Y-198178328D02*
X246668796Y-198249757D01*
X246668796Y-198249757D02*
X246740225Y-198321185D01*
X246740225Y-198321185D02*
X246811653Y-198464042D01*
X246811653Y-198464042D02*
X246811653Y-198678328D01*
X246811653Y-198678328D02*
X246740225Y-198821185D01*
X246740225Y-198821185D02*
X246668796Y-198892614D01*
X246668796Y-198892614D02*
X246525939Y-198964042D01*
X246525939Y-198964042D02*
X245954510Y-198964042D01*
X248025939Y-199606900D02*
X247883082Y-199678328D01*
X247883082Y-199678328D02*
X247597368Y-199678328D01*
X247597368Y-199678328D02*
X247454510Y-199606900D01*
X247454510Y-199606900D02*
X247383082Y-199464042D01*
X247383082Y-199464042D02*
X247383082Y-198892614D01*
X247383082Y-198892614D02*
X247454510Y-198749757D01*
X247454510Y-198749757D02*
X247597368Y-198678328D01*
X247597368Y-198678328D02*
X247883082Y-198678328D01*
X247883082Y-198678328D02*
X248025939Y-198749757D01*
X248025939Y-198749757D02*
X248097368Y-198892614D01*
X248097368Y-198892614D02*
X248097368Y-199035471D01*
X248097368Y-199035471D02*
X247383082Y-199178328D01*
X248597367Y-198678328D02*
X248954510Y-199678328D01*
X248954510Y-199678328D02*
X249311653Y-198678328D01*
X249883081Y-199535471D02*
X249954510Y-199606900D01*
X249954510Y-199606900D02*
X249883081Y-199678328D01*
X249883081Y-199678328D02*
X249811653Y-199606900D01*
X249811653Y-199606900D02*
X249883081Y-199535471D01*
X249883081Y-199535471D02*
X249883081Y-199678328D01*
X249883081Y-198749757D02*
X249954510Y-198821185D01*
X249954510Y-198821185D02*
X249883081Y-198892614D01*
X249883081Y-198892614D02*
X249811653Y-198821185D01*
X249811653Y-198821185D02*
X249883081Y-198749757D01*
X249883081Y-198749757D02*
X249883081Y-198892614D01*
X251740224Y-199678328D02*
X251740224Y-198678328D01*
X251740224Y-198964042D02*
X251811653Y-198821185D01*
X251811653Y-198821185D02*
X251883082Y-198749757D01*
X251883082Y-198749757D02*
X252025939Y-198678328D01*
X252025939Y-198678328D02*
X252168796Y-198678328D01*
X253240224Y-199606900D02*
X253097367Y-199678328D01*
X253097367Y-199678328D02*
X252811653Y-199678328D01*
X252811653Y-199678328D02*
X252668795Y-199606900D01*
X252668795Y-199606900D02*
X252597367Y-199464042D01*
X252597367Y-199464042D02*
X252597367Y-198892614D01*
X252597367Y-198892614D02*
X252668795Y-198749757D01*
X252668795Y-198749757D02*
X252811653Y-198678328D01*
X252811653Y-198678328D02*
X253097367Y-198678328D01*
X253097367Y-198678328D02*
X253240224Y-198749757D01*
X253240224Y-198749757D02*
X253311653Y-198892614D01*
X253311653Y-198892614D02*
X253311653Y-199035471D01*
X253311653Y-199035471D02*
X252597367Y-199178328D01*
X253811652Y-198678328D02*
X254168795Y-199678328D01*
X254168795Y-199678328D02*
X254525938Y-198678328D01*
X255383081Y-198178328D02*
X255525938Y-198178328D01*
X255525938Y-198178328D02*
X255668795Y-198249757D01*
X255668795Y-198249757D02*
X255740224Y-198321185D01*
X255740224Y-198321185D02*
X255811652Y-198464042D01*
X255811652Y-198464042D02*
X255883081Y-198749757D01*
X255883081Y-198749757D02*
X255883081Y-199106900D01*
X255883081Y-199106900D02*
X255811652Y-199392614D01*
X255811652Y-199392614D02*
X255740224Y-199535471D01*
X255740224Y-199535471D02*
X255668795Y-199606900D01*
X255668795Y-199606900D02*
X255525938Y-199678328D01*
X255525938Y-199678328D02*
X255383081Y-199678328D01*
X255383081Y-199678328D02*
X255240224Y-199606900D01*
X255240224Y-199606900D02*
X255168795Y-199535471D01*
X255168795Y-199535471D02*
X255097366Y-199392614D01*
X255097366Y-199392614D02*
X255025938Y-199106900D01*
X255025938Y-199106900D02*
X255025938Y-198749757D01*
X255025938Y-198749757D02*
X255097366Y-198464042D01*
X255097366Y-198464042D02*
X255168795Y-198321185D01*
X255168795Y-198321185D02*
X255240224Y-198249757D01*
X255240224Y-198249757D02*
X255383081Y-198178328D01*
D10*
D11*
X160784398Y-199614700D02*
X160998684Y-199686128D01*
X160998684Y-199686128D02*
X161355826Y-199686128D01*
X161355826Y-199686128D02*
X161498684Y-199614700D01*
X161498684Y-199614700D02*
X161570112Y-199543271D01*
X161570112Y-199543271D02*
X161641541Y-199400414D01*
X161641541Y-199400414D02*
X161641541Y-199257557D01*
X161641541Y-199257557D02*
X161570112Y-199114700D01*
X161570112Y-199114700D02*
X161498684Y-199043271D01*
X161498684Y-199043271D02*
X161355826Y-198971842D01*
X161355826Y-198971842D02*
X161070112Y-198900414D01*
X161070112Y-198900414D02*
X160927255Y-198828985D01*
X160927255Y-198828985D02*
X160855826Y-198757557D01*
X160855826Y-198757557D02*
X160784398Y-198614700D01*
X160784398Y-198614700D02*
X160784398Y-198471842D01*
X160784398Y-198471842D02*
X160855826Y-198328985D01*
X160855826Y-198328985D02*
X160927255Y-198257557D01*
X160927255Y-198257557D02*
X161070112Y-198186128D01*
X161070112Y-198186128D02*
X161427255Y-198186128D01*
X161427255Y-198186128D02*
X161641541Y-198257557D01*
X162284397Y-199686128D02*
X162284397Y-198686128D01*
X162284397Y-198186128D02*
X162212969Y-198257557D01*
X162212969Y-198257557D02*
X162284397Y-198328985D01*
X162284397Y-198328985D02*
X162355826Y-198257557D01*
X162355826Y-198257557D02*
X162284397Y-198186128D01*
X162284397Y-198186128D02*
X162284397Y-198328985D01*
X162855826Y-198686128D02*
X163641541Y-198686128D01*
X163641541Y-198686128D02*
X162855826Y-199686128D01*
X162855826Y-199686128D02*
X163641541Y-199686128D01*
X164784398Y-199614700D02*
X164641541Y-199686128D01*
X164641541Y-199686128D02*
X164355827Y-199686128D01*
X164355827Y-199686128D02*
X164212969Y-199614700D01*
X164212969Y-199614700D02*
X164141541Y-199471842D01*
X164141541Y-199471842D02*
X164141541Y-198900414D01*
X164141541Y-198900414D02*
X164212969Y-198757557D01*
X164212969Y-198757557D02*
X164355827Y-198686128D01*
X164355827Y-198686128D02*
X164641541Y-198686128D01*
X164641541Y-198686128D02*
X164784398Y-198757557D01*
X164784398Y-198757557D02*
X164855827Y-198900414D01*
X164855827Y-198900414D02*
X164855827Y-199043271D01*
X164855827Y-199043271D02*
X164141541Y-199186128D01*
X165498683Y-199543271D02*
X165570112Y-199614700D01*
X165570112Y-199614700D02*
X165498683Y-199686128D01*
X165498683Y-199686128D02*
X165427255Y-199614700D01*
X165427255Y-199614700D02*
X165498683Y-199543271D01*
X165498683Y-199543271D02*
X165498683Y-199686128D01*
X165498683Y-198757557D02*
X165570112Y-198828985D01*
X165570112Y-198828985D02*
X165498683Y-198900414D01*
X165498683Y-198900414D02*
X165427255Y-198828985D01*
X165427255Y-198828985D02*
X165498683Y-198757557D01*
X165498683Y-198757557D02*
X165498683Y-198900414D01*
X167355826Y-198186128D02*
X167355826Y-199400414D01*
X167355826Y-199400414D02*
X167427255Y-199543271D01*
X167427255Y-199543271D02*
X167498684Y-199614700D01*
X167498684Y-199614700D02*
X167641541Y-199686128D01*
X167641541Y-199686128D02*
X167927255Y-199686128D01*
X167927255Y-199686128D02*
X168070112Y-199614700D01*
X168070112Y-199614700D02*
X168141541Y-199543271D01*
X168141541Y-199543271D02*
X168212969Y-199400414D01*
X168212969Y-199400414D02*
X168212969Y-198186128D01*
X168855827Y-199614700D02*
X169070113Y-199686128D01*
X169070113Y-199686128D02*
X169427255Y-199686128D01*
X169427255Y-199686128D02*
X169570113Y-199614700D01*
X169570113Y-199614700D02*
X169641541Y-199543271D01*
X169641541Y-199543271D02*
X169712970Y-199400414D01*
X169712970Y-199400414D02*
X169712970Y-199257557D01*
X169712970Y-199257557D02*
X169641541Y-199114700D01*
X169641541Y-199114700D02*
X169570113Y-199043271D01*
X169570113Y-199043271D02*
X169427255Y-198971842D01*
X169427255Y-198971842D02*
X169141541Y-198900414D01*
X169141541Y-198900414D02*
X168998684Y-198828985D01*
X168998684Y-198828985D02*
X168927255Y-198757557D01*
X168927255Y-198757557D02*
X168855827Y-198614700D01*
X168855827Y-198614700D02*
X168855827Y-198471842D01*
X168855827Y-198471842D02*
X168927255Y-198328985D01*
X168927255Y-198328985D02*
X168998684Y-198257557D01*
X168998684Y-198257557D02*
X169141541Y-198186128D01*
X169141541Y-198186128D02*
X169498684Y-198186128D01*
X169498684Y-198186128D02*
X169712970Y-198257557D01*
X171070112Y-199686128D02*
X170355826Y-199686128D01*
X170355826Y-199686128D02*
X170355826Y-198186128D01*
X172141541Y-199614700D02*
X171998684Y-199686128D01*
X171998684Y-199686128D02*
X171712970Y-199686128D01*
X171712970Y-199686128D02*
X171570112Y-199614700D01*
X171570112Y-199614700D02*
X171498684Y-199471842D01*
X171498684Y-199471842D02*
X171498684Y-198900414D01*
X171498684Y-198900414D02*
X171570112Y-198757557D01*
X171570112Y-198757557D02*
X171712970Y-198686128D01*
X171712970Y-198686128D02*
X171998684Y-198686128D01*
X171998684Y-198686128D02*
X172141541Y-198757557D01*
X172141541Y-198757557D02*
X172212970Y-198900414D01*
X172212970Y-198900414D02*
X172212970Y-199043271D01*
X172212970Y-199043271D02*
X171498684Y-199186128D01*
X172641541Y-198686128D02*
X173212969Y-198686128D01*
X172855826Y-198186128D02*
X172855826Y-199471842D01*
X172855826Y-199471842D02*
X172927255Y-199614700D01*
X172927255Y-199614700D02*
X173070112Y-199686128D01*
X173070112Y-199686128D02*
X173212969Y-199686128D01*
X173498684Y-198686128D02*
X174070112Y-198686128D01*
X173712969Y-198186128D02*
X173712969Y-199471842D01*
X173712969Y-199471842D02*
X173784398Y-199614700D01*
X173784398Y-199614700D02*
X173927255Y-199686128D01*
X173927255Y-199686128D02*
X174070112Y-199686128D01*
X175141541Y-199614700D02*
X174998684Y-199686128D01*
X174998684Y-199686128D02*
X174712970Y-199686128D01*
X174712970Y-199686128D02*
X174570112Y-199614700D01*
X174570112Y-199614700D02*
X174498684Y-199471842D01*
X174498684Y-199471842D02*
X174498684Y-198900414D01*
X174498684Y-198900414D02*
X174570112Y-198757557D01*
X174570112Y-198757557D02*
X174712970Y-198686128D01*
X174712970Y-198686128D02*
X174998684Y-198686128D01*
X174998684Y-198686128D02*
X175141541Y-198757557D01*
X175141541Y-198757557D02*
X175212970Y-198900414D01*
X175212970Y-198900414D02*
X175212970Y-199043271D01*
X175212970Y-199043271D02*
X174498684Y-199186128D01*
X175855826Y-199686128D02*
X175855826Y-198686128D01*
X175855826Y-198971842D02*
X175927255Y-198828985D01*
X175927255Y-198828985D02*
X175998684Y-198757557D01*
X175998684Y-198757557D02*
X176141541Y-198686128D01*
X176141541Y-198686128D02*
X176284398Y-198686128D01*
D10*
D11*
X245855826Y-202486128D02*
X245855826Y-200986128D01*
X247212970Y-202486128D02*
X247212970Y-200986128D01*
X247212970Y-202414700D02*
X247070112Y-202486128D01*
X247070112Y-202486128D02*
X246784398Y-202486128D01*
X246784398Y-202486128D02*
X246641541Y-202414700D01*
X246641541Y-202414700D02*
X246570112Y-202343271D01*
X246570112Y-202343271D02*
X246498684Y-202200414D01*
X246498684Y-202200414D02*
X246498684Y-201771842D01*
X246498684Y-201771842D02*
X246570112Y-201628985D01*
X246570112Y-201628985D02*
X246641541Y-201557557D01*
X246641541Y-201557557D02*
X246784398Y-201486128D01*
X246784398Y-201486128D02*
X247070112Y-201486128D01*
X247070112Y-201486128D02*
X247212970Y-201557557D01*
X247927255Y-202343271D02*
X247998684Y-202414700D01*
X247998684Y-202414700D02*
X247927255Y-202486128D01*
X247927255Y-202486128D02*
X247855827Y-202414700D01*
X247855827Y-202414700D02*
X247927255Y-202343271D01*
X247927255Y-202343271D02*
X247927255Y-202486128D01*
X247927255Y-201557557D02*
X247998684Y-201628985D01*
X247998684Y-201628985D02*
X247927255Y-201700414D01*
X247927255Y-201700414D02*
X247855827Y-201628985D01*
X247855827Y-201628985D02*
X247927255Y-201557557D01*
X247927255Y-201557557D02*
X247927255Y-201700414D01*
X249641541Y-200986128D02*
X250641541Y-200986128D01*
X250641541Y-200986128D02*
X249998684Y-202486128D01*
X252284398Y-200914700D02*
X250998684Y-202843271D01*
X252641541Y-200986128D02*
X253641541Y-200986128D01*
X253641541Y-200986128D02*
X252998684Y-202486128D01*
D10*
D11*
X159400000Y-193400000D02*
X267400000Y-193400000D01*
D10*
D13*
X161091728Y-194104438D02*
X162234585Y-194104438D01*
X161413157Y-196104438D02*
X161663157Y-194104438D01*
X162651252Y-196104438D02*
X162817919Y-194771104D01*
X162901252Y-194104438D02*
X162794109Y-194199676D01*
X162794109Y-194199676D02*
X162877443Y-194294914D01*
X162877443Y-194294914D02*
X162984586Y-194199676D01*
X162984586Y-194199676D02*
X162901252Y-194104438D01*
X162901252Y-194104438D02*
X162877443Y-194294914D01*
X163484586Y-194771104D02*
X164246490Y-194771104D01*
X163853633Y-194104438D02*
X163639348Y-195818723D01*
X163639348Y-195818723D02*
X163710776Y-196009200D01*
X163710776Y-196009200D02*
X163889348Y-196104438D01*
X163889348Y-196104438D02*
X164079824Y-196104438D01*
X165032205Y-196104438D02*
X164853633Y-196009200D01*
X164853633Y-196009200D02*
X164782205Y-195818723D01*
X164782205Y-195818723D02*
X164996490Y-194104438D01*
X166567919Y-196009200D02*
X166365538Y-196104438D01*
X166365538Y-196104438D02*
X165984585Y-196104438D01*
X165984585Y-196104438D02*
X165806014Y-196009200D01*
X165806014Y-196009200D02*
X165734585Y-195818723D01*
X165734585Y-195818723D02*
X165829824Y-195056819D01*
X165829824Y-195056819D02*
X165948871Y-194866342D01*
X165948871Y-194866342D02*
X166151252Y-194771104D01*
X166151252Y-194771104D02*
X166532204Y-194771104D01*
X166532204Y-194771104D02*
X166710776Y-194866342D01*
X166710776Y-194866342D02*
X166782204Y-195056819D01*
X166782204Y-195056819D02*
X166758395Y-195247295D01*
X166758395Y-195247295D02*
X165782204Y-195437771D01*
X167532205Y-195913961D02*
X167615538Y-196009200D01*
X167615538Y-196009200D02*
X167508395Y-196104438D01*
X167508395Y-196104438D02*
X167425062Y-196009200D01*
X167425062Y-196009200D02*
X167532205Y-195913961D01*
X167532205Y-195913961D02*
X167508395Y-196104438D01*
X167663157Y-194866342D02*
X167746490Y-194961580D01*
X167746490Y-194961580D02*
X167639348Y-195056819D01*
X167639348Y-195056819D02*
X167556014Y-194961580D01*
X167556014Y-194961580D02*
X167663157Y-194866342D01*
X167663157Y-194866342D02*
X167639348Y-195056819D01*
X169984586Y-196104438D02*
X170234586Y-194104438D01*
X172103634Y-195913961D02*
X171996491Y-196009200D01*
X171996491Y-196009200D02*
X171698872Y-196104438D01*
X171698872Y-196104438D02*
X171508396Y-196104438D01*
X171508396Y-196104438D02*
X171234586Y-196009200D01*
X171234586Y-196009200D02*
X171067920Y-195818723D01*
X171067920Y-195818723D02*
X170996491Y-195628247D01*
X170996491Y-195628247D02*
X170948872Y-195247295D01*
X170948872Y-195247295D02*
X170984586Y-194961580D01*
X170984586Y-194961580D02*
X171127443Y-194580628D01*
X171127443Y-194580628D02*
X171246491Y-194390152D01*
X171246491Y-194390152D02*
X171460777Y-194199676D01*
X171460777Y-194199676D02*
X171758396Y-194104438D01*
X171758396Y-194104438D02*
X171948872Y-194104438D01*
X171948872Y-194104438D02*
X172222682Y-194199676D01*
X172222682Y-194199676D02*
X172306015Y-194294914D01*
X173889348Y-196104438D02*
X172936967Y-196104438D01*
X172936967Y-196104438D02*
X173186967Y-194104438D01*
X174615539Y-194104438D02*
X175948872Y-194104438D01*
X175948872Y-194104438D02*
X174841730Y-196104438D01*
X177508396Y-196104438D02*
X176365539Y-196104438D01*
X176936968Y-196104438D02*
X177186968Y-194104438D01*
X177186968Y-194104438D02*
X176960777Y-194390152D01*
X176960777Y-194390152D02*
X176746492Y-194580628D01*
X176746492Y-194580628D02*
X176544111Y-194675866D01*
X178996492Y-194104438D02*
X179186968Y-194104438D01*
X179186968Y-194104438D02*
X179365539Y-194199676D01*
X179365539Y-194199676D02*
X179448873Y-194294914D01*
X179448873Y-194294914D02*
X179520301Y-194485390D01*
X179520301Y-194485390D02*
X179567920Y-194866342D01*
X179567920Y-194866342D02*
X179508396Y-195342533D01*
X179508396Y-195342533D02*
X179365539Y-195723485D01*
X179365539Y-195723485D02*
X179246492Y-195913961D01*
X179246492Y-195913961D02*
X179139349Y-196009200D01*
X179139349Y-196009200D02*
X178936968Y-196104438D01*
X178936968Y-196104438D02*
X178746492Y-196104438D01*
X178746492Y-196104438D02*
X178567920Y-196009200D01*
X178567920Y-196009200D02*
X178484587Y-195913961D01*
X178484587Y-195913961D02*
X178413158Y-195723485D01*
X178413158Y-195723485D02*
X178365539Y-195342533D01*
X178365539Y-195342533D02*
X178425063Y-194866342D01*
X178425063Y-194866342D02*
X178567920Y-194485390D01*
X178567920Y-194485390D02*
X178686968Y-194294914D01*
X178686968Y-194294914D02*
X178794111Y-194199676D01*
X178794111Y-194199676D02*
X178996492Y-194104438D01*
X180329825Y-194104438D02*
X181663158Y-194104438D01*
X181663158Y-194104438D02*
X180556016Y-196104438D01*
X183829826Y-195056819D02*
X184496492Y-195056819D01*
X184651254Y-196104438D02*
X183698873Y-196104438D01*
X183698873Y-196104438D02*
X183948873Y-194104438D01*
X183948873Y-194104438D02*
X184901254Y-194104438D01*
X185472683Y-194104438D02*
X185889350Y-196104438D01*
X185889350Y-196104438D02*
X186806016Y-194104438D01*
X187222683Y-196104438D02*
X187472683Y-194104438D01*
X187472683Y-194104438D02*
X187960778Y-195533009D01*
X187960778Y-195533009D02*
X188806017Y-194104438D01*
X188806017Y-194104438D02*
X188556017Y-196104438D01*
D10*
D11*
X161355826Y-191500414D02*
X160855826Y-191500414D01*
X160855826Y-192286128D02*
X160855826Y-190786128D01*
X160855826Y-190786128D02*
X161570112Y-190786128D01*
X162141540Y-192286128D02*
X162141540Y-191286128D01*
X162141540Y-190786128D02*
X162070112Y-190857557D01*
X162070112Y-190857557D02*
X162141540Y-190928985D01*
X162141540Y-190928985D02*
X162212969Y-190857557D01*
X162212969Y-190857557D02*
X162141540Y-190786128D01*
X162141540Y-190786128D02*
X162141540Y-190928985D01*
X163070112Y-192286128D02*
X162927255Y-192214700D01*
X162927255Y-192214700D02*
X162855826Y-192071842D01*
X162855826Y-192071842D02*
X162855826Y-190786128D01*
X164212969Y-192214700D02*
X164070112Y-192286128D01*
X164070112Y-192286128D02*
X163784398Y-192286128D01*
X163784398Y-192286128D02*
X163641540Y-192214700D01*
X163641540Y-192214700D02*
X163570112Y-192071842D01*
X163570112Y-192071842D02*
X163570112Y-191500414D01*
X163570112Y-191500414D02*
X163641540Y-191357557D01*
X163641540Y-191357557D02*
X163784398Y-191286128D01*
X163784398Y-191286128D02*
X164070112Y-191286128D01*
X164070112Y-191286128D02*
X164212969Y-191357557D01*
X164212969Y-191357557D02*
X164284398Y-191500414D01*
X164284398Y-191500414D02*
X164284398Y-191643271D01*
X164284398Y-191643271D02*
X163570112Y-191786128D01*
X164927254Y-192143271D02*
X164998683Y-192214700D01*
X164998683Y-192214700D02*
X164927254Y-192286128D01*
X164927254Y-192286128D02*
X164855826Y-192214700D01*
X164855826Y-192214700D02*
X164927254Y-192143271D01*
X164927254Y-192143271D02*
X164927254Y-192286128D01*
X164927254Y-191357557D02*
X164998683Y-191428985D01*
X164998683Y-191428985D02*
X164927254Y-191500414D01*
X164927254Y-191500414D02*
X164855826Y-191428985D01*
X164855826Y-191428985D02*
X164927254Y-191357557D01*
X164927254Y-191357557D02*
X164927254Y-191500414D01*
X166784397Y-192286128D02*
X166784397Y-190786128D01*
X168355826Y-192143271D02*
X168284398Y-192214700D01*
X168284398Y-192214700D02*
X168070112Y-192286128D01*
X168070112Y-192286128D02*
X167927255Y-192286128D01*
X167927255Y-192286128D02*
X167712969Y-192214700D01*
X167712969Y-192214700D02*
X167570112Y-192071842D01*
X167570112Y-192071842D02*
X167498683Y-191928985D01*
X167498683Y-191928985D02*
X167427255Y-191643271D01*
X167427255Y-191643271D02*
X167427255Y-191428985D01*
X167427255Y-191428985D02*
X167498683Y-191143271D01*
X167498683Y-191143271D02*
X167570112Y-191000414D01*
X167570112Y-191000414D02*
X167712969Y-190857557D01*
X167712969Y-190857557D02*
X167927255Y-190786128D01*
X167927255Y-190786128D02*
X168070112Y-190786128D01*
X168070112Y-190786128D02*
X168284398Y-190857557D01*
X168284398Y-190857557D02*
X168355826Y-190928985D01*
X169712969Y-192286128D02*
X168998683Y-192286128D01*
X168998683Y-192286128D02*
X168998683Y-190786128D01*
X170070112Y-190786128D02*
X171070112Y-190786128D01*
X171070112Y-190786128D02*
X170427255Y-192286128D01*
X172427255Y-192286128D02*
X171570112Y-192286128D01*
X171998683Y-192286128D02*
X171998683Y-190786128D01*
X171998683Y-190786128D02*
X171855826Y-191000414D01*
X171855826Y-191000414D02*
X171712969Y-191143271D01*
X171712969Y-191143271D02*
X171570112Y-191214700D01*
X173355826Y-190786128D02*
X173498683Y-190786128D01*
X173498683Y-190786128D02*
X173641540Y-190857557D01*
X173641540Y-190857557D02*
X173712969Y-190928985D01*
X173712969Y-190928985D02*
X173784397Y-191071842D01*
X173784397Y-191071842D02*
X173855826Y-191357557D01*
X173855826Y-191357557D02*
X173855826Y-191714700D01*
X173855826Y-191714700D02*
X173784397Y-192000414D01*
X173784397Y-192000414D02*
X173712969Y-192143271D01*
X173712969Y-192143271D02*
X173641540Y-192214700D01*
X173641540Y-192214700D02*
X173498683Y-192286128D01*
X173498683Y-192286128D02*
X173355826Y-192286128D01*
X173355826Y-192286128D02*
X173212969Y-192214700D01*
X173212969Y-192214700D02*
X173141540Y-192143271D01*
X173141540Y-192143271D02*
X173070111Y-192000414D01*
X173070111Y-192000414D02*
X172998683Y-191714700D01*
X172998683Y-191714700D02*
X172998683Y-191357557D01*
X172998683Y-191357557D02*
X173070111Y-191071842D01*
X173070111Y-191071842D02*
X173141540Y-190928985D01*
X173141540Y-190928985D02*
X173212969Y-190857557D01*
X173212969Y-190857557D02*
X173355826Y-190786128D01*
X174355825Y-190786128D02*
X175355825Y-190786128D01*
X175355825Y-190786128D02*
X174712968Y-192286128D01*
X175570111Y-192428985D02*
X176712968Y-192428985D01*
X177070110Y-191500414D02*
X177570110Y-191500414D01*
X177784396Y-192286128D02*
X177070110Y-192286128D01*
X177070110Y-192286128D02*
X177070110Y-190786128D01*
X177070110Y-190786128D02*
X177784396Y-190786128D01*
X178212968Y-190786128D02*
X178712968Y-192286128D01*
X178712968Y-192286128D02*
X179212968Y-190786128D01*
X179712967Y-192286128D02*
X179712967Y-190786128D01*
X179712967Y-190786128D02*
X180212967Y-191857557D01*
X180212967Y-191857557D02*
X180712967Y-190786128D01*
X180712967Y-190786128D02*
X180712967Y-192286128D01*
X181427253Y-192143271D02*
X181498682Y-192214700D01*
X181498682Y-192214700D02*
X181427253Y-192286128D01*
X181427253Y-192286128D02*
X181355825Y-192214700D01*
X181355825Y-192214700D02*
X181427253Y-192143271D01*
X181427253Y-192143271D02*
X181427253Y-192286128D01*
X182141539Y-192286128D02*
X182141539Y-190786128D01*
X182284397Y-191714700D02*
X182712968Y-192286128D01*
X182712968Y-191286128D02*
X182141539Y-191857557D01*
X183355825Y-192286128D02*
X183355825Y-191286128D01*
X183355825Y-190786128D02*
X183284397Y-190857557D01*
X183284397Y-190857557D02*
X183355825Y-190928985D01*
X183355825Y-190928985D02*
X183427254Y-190857557D01*
X183427254Y-190857557D02*
X183355825Y-190786128D01*
X183355825Y-190786128D02*
X183355825Y-190928985D01*
X184712969Y-192214700D02*
X184570111Y-192286128D01*
X184570111Y-192286128D02*
X184284397Y-192286128D01*
X184284397Y-192286128D02*
X184141540Y-192214700D01*
X184141540Y-192214700D02*
X184070111Y-192143271D01*
X184070111Y-192143271D02*
X183998683Y-192000414D01*
X183998683Y-192000414D02*
X183998683Y-191571842D01*
X183998683Y-191571842D02*
X184070111Y-191428985D01*
X184070111Y-191428985D02*
X184141540Y-191357557D01*
X184141540Y-191357557D02*
X184284397Y-191286128D01*
X184284397Y-191286128D02*
X184570111Y-191286128D01*
X184570111Y-191286128D02*
X184712969Y-191357557D01*
X185998683Y-192286128D02*
X185998683Y-191500414D01*
X185998683Y-191500414D02*
X185927254Y-191357557D01*
X185927254Y-191357557D02*
X185784397Y-191286128D01*
X185784397Y-191286128D02*
X185498683Y-191286128D01*
X185498683Y-191286128D02*
X185355825Y-191357557D01*
X185998683Y-192214700D02*
X185855825Y-192286128D01*
X185855825Y-192286128D02*
X185498683Y-192286128D01*
X185498683Y-192286128D02*
X185355825Y-192214700D01*
X185355825Y-192214700D02*
X185284397Y-192071842D01*
X185284397Y-192071842D02*
X185284397Y-191928985D01*
X185284397Y-191928985D02*
X185355825Y-191786128D01*
X185355825Y-191786128D02*
X185498683Y-191714700D01*
X185498683Y-191714700D02*
X185855825Y-191714700D01*
X185855825Y-191714700D02*
X185998683Y-191643271D01*
X187355826Y-192286128D02*
X187355826Y-190786128D01*
X187355826Y-192214700D02*
X187212968Y-192286128D01*
X187212968Y-192286128D02*
X186927254Y-192286128D01*
X186927254Y-192286128D02*
X186784397Y-192214700D01*
X186784397Y-192214700D02*
X186712968Y-192143271D01*
X186712968Y-192143271D02*
X186641540Y-192000414D01*
X186641540Y-192000414D02*
X186641540Y-191571842D01*
X186641540Y-191571842D02*
X186712968Y-191428985D01*
X186712968Y-191428985D02*
X186784397Y-191357557D01*
X186784397Y-191357557D02*
X186927254Y-191286128D01*
X186927254Y-191286128D02*
X187212968Y-191286128D01*
X187212968Y-191286128D02*
X187355826Y-191357557D01*
X187712969Y-192428985D02*
X188855826Y-192428985D01*
X189212968Y-191286128D02*
X189212968Y-192786128D01*
X189212968Y-191357557D02*
X189355826Y-191286128D01*
X189355826Y-191286128D02*
X189641540Y-191286128D01*
X189641540Y-191286128D02*
X189784397Y-191357557D01*
X189784397Y-191357557D02*
X189855826Y-191428985D01*
X189855826Y-191428985D02*
X189927254Y-191571842D01*
X189927254Y-191571842D02*
X189927254Y-192000414D01*
X189927254Y-192000414D02*
X189855826Y-192143271D01*
X189855826Y-192143271D02*
X189784397Y-192214700D01*
X189784397Y-192214700D02*
X189641540Y-192286128D01*
X189641540Y-192286128D02*
X189355826Y-192286128D01*
X189355826Y-192286128D02*
X189212968Y-192214700D01*
X191212969Y-192214700D02*
X191070111Y-192286128D01*
X191070111Y-192286128D02*
X190784397Y-192286128D01*
X190784397Y-192286128D02*
X190641540Y-192214700D01*
X190641540Y-192214700D02*
X190570111Y-192143271D01*
X190570111Y-192143271D02*
X190498683Y-192000414D01*
X190498683Y-192000414D02*
X190498683Y-191571842D01*
X190498683Y-191571842D02*
X190570111Y-191428985D01*
X190570111Y-191428985D02*
X190641540Y-191357557D01*
X190641540Y-191357557D02*
X190784397Y-191286128D01*
X190784397Y-191286128D02*
X191070111Y-191286128D01*
X191070111Y-191286128D02*
X191212969Y-191357557D01*
X191855825Y-192286128D02*
X191855825Y-190786128D01*
X191855825Y-191357557D02*
X191998683Y-191286128D01*
X191998683Y-191286128D02*
X192284397Y-191286128D01*
X192284397Y-191286128D02*
X192427254Y-191357557D01*
X192427254Y-191357557D02*
X192498683Y-191428985D01*
X192498683Y-191428985D02*
X192570111Y-191571842D01*
X192570111Y-191571842D02*
X192570111Y-192000414D01*
X192570111Y-192000414D02*
X192498683Y-192143271D01*
X192498683Y-192143271D02*
X192427254Y-192214700D01*
X192427254Y-192214700D02*
X192284397Y-192286128D01*
X192284397Y-192286128D02*
X191998683Y-192286128D01*
X191998683Y-192286128D02*
X191855825Y-192214700D01*
D10*
D11*
X159400000Y-187400000D02*
X267400000Y-187400000D01*
D10*
D11*
X160784398Y-189514700D02*
X160998684Y-189586128D01*
X160998684Y-189586128D02*
X161355826Y-189586128D01*
X161355826Y-189586128D02*
X161498684Y-189514700D01*
X161498684Y-189514700D02*
X161570112Y-189443271D01*
X161570112Y-189443271D02*
X161641541Y-189300414D01*
X161641541Y-189300414D02*
X161641541Y-189157557D01*
X161641541Y-189157557D02*
X161570112Y-189014700D01*
X161570112Y-189014700D02*
X161498684Y-188943271D01*
X161498684Y-188943271D02*
X161355826Y-188871842D01*
X161355826Y-188871842D02*
X161070112Y-188800414D01*
X161070112Y-188800414D02*
X160927255Y-188728985D01*
X160927255Y-188728985D02*
X160855826Y-188657557D01*
X160855826Y-188657557D02*
X160784398Y-188514700D01*
X160784398Y-188514700D02*
X160784398Y-188371842D01*
X160784398Y-188371842D02*
X160855826Y-188228985D01*
X160855826Y-188228985D02*
X160927255Y-188157557D01*
X160927255Y-188157557D02*
X161070112Y-188086128D01*
X161070112Y-188086128D02*
X161427255Y-188086128D01*
X161427255Y-188086128D02*
X161641541Y-188157557D01*
X162284397Y-189586128D02*
X162284397Y-188086128D01*
X162927255Y-189586128D02*
X162927255Y-188800414D01*
X162927255Y-188800414D02*
X162855826Y-188657557D01*
X162855826Y-188657557D02*
X162712969Y-188586128D01*
X162712969Y-188586128D02*
X162498683Y-188586128D01*
X162498683Y-188586128D02*
X162355826Y-188657557D01*
X162355826Y-188657557D02*
X162284397Y-188728985D01*
X164212969Y-189514700D02*
X164070112Y-189586128D01*
X164070112Y-189586128D02*
X163784398Y-189586128D01*
X163784398Y-189586128D02*
X163641540Y-189514700D01*
X163641540Y-189514700D02*
X163570112Y-189371842D01*
X163570112Y-189371842D02*
X163570112Y-188800414D01*
X163570112Y-188800414D02*
X163641540Y-188657557D01*
X163641540Y-188657557D02*
X163784398Y-188586128D01*
X163784398Y-188586128D02*
X164070112Y-188586128D01*
X164070112Y-188586128D02*
X164212969Y-188657557D01*
X164212969Y-188657557D02*
X164284398Y-188800414D01*
X164284398Y-188800414D02*
X164284398Y-188943271D01*
X164284398Y-188943271D02*
X163570112Y-189086128D01*
X165498683Y-189514700D02*
X165355826Y-189586128D01*
X165355826Y-189586128D02*
X165070112Y-189586128D01*
X165070112Y-189586128D02*
X164927254Y-189514700D01*
X164927254Y-189514700D02*
X164855826Y-189371842D01*
X164855826Y-189371842D02*
X164855826Y-188800414D01*
X164855826Y-188800414D02*
X164927254Y-188657557D01*
X164927254Y-188657557D02*
X165070112Y-188586128D01*
X165070112Y-188586128D02*
X165355826Y-188586128D01*
X165355826Y-188586128D02*
X165498683Y-188657557D01*
X165498683Y-188657557D02*
X165570112Y-188800414D01*
X165570112Y-188800414D02*
X165570112Y-188943271D01*
X165570112Y-188943271D02*
X164855826Y-189086128D01*
X165998683Y-188586128D02*
X166570111Y-188586128D01*
X166212968Y-188086128D02*
X166212968Y-189371842D01*
X166212968Y-189371842D02*
X166284397Y-189514700D01*
X166284397Y-189514700D02*
X166427254Y-189586128D01*
X166427254Y-189586128D02*
X166570111Y-189586128D01*
X167070111Y-189443271D02*
X167141540Y-189514700D01*
X167141540Y-189514700D02*
X167070111Y-189586128D01*
X167070111Y-189586128D02*
X166998683Y-189514700D01*
X166998683Y-189514700D02*
X167070111Y-189443271D01*
X167070111Y-189443271D02*
X167070111Y-189586128D01*
X167070111Y-188657557D02*
X167141540Y-188728985D01*
X167141540Y-188728985D02*
X167070111Y-188800414D01*
X167070111Y-188800414D02*
X166998683Y-188728985D01*
X166998683Y-188728985D02*
X167070111Y-188657557D01*
X167070111Y-188657557D02*
X167070111Y-188800414D01*
D10*
D12*
X160954510Y-185078328D02*
X160954510Y-186292614D01*
X160954510Y-186292614D02*
X161025939Y-186435471D01*
X161025939Y-186435471D02*
X161097368Y-186506900D01*
X161097368Y-186506900D02*
X161240225Y-186578328D01*
X161240225Y-186578328D02*
X161525939Y-186578328D01*
X161525939Y-186578328D02*
X161668796Y-186506900D01*
X161668796Y-186506900D02*
X161740225Y-186435471D01*
X161740225Y-186435471D02*
X161811653Y-186292614D01*
X161811653Y-186292614D02*
X161811653Y-185078328D01*
X162525939Y-185578328D02*
X162525939Y-186578328D01*
X162525939Y-185721185D02*
X162597368Y-185649757D01*
X162597368Y-185649757D02*
X162740225Y-185578328D01*
X162740225Y-185578328D02*
X162954511Y-185578328D01*
X162954511Y-185578328D02*
X163097368Y-185649757D01*
X163097368Y-185649757D02*
X163168797Y-185792614D01*
X163168797Y-185792614D02*
X163168797Y-186578328D01*
X163883082Y-186578328D02*
X163883082Y-185578328D01*
X163883082Y-185078328D02*
X163811654Y-185149757D01*
X163811654Y-185149757D02*
X163883082Y-185221185D01*
X163883082Y-185221185D02*
X163954511Y-185149757D01*
X163954511Y-185149757D02*
X163883082Y-185078328D01*
X163883082Y-185078328D02*
X163883082Y-185221185D01*
X164454511Y-185578328D02*
X164811654Y-186578328D01*
X164811654Y-186578328D02*
X165168797Y-185578328D01*
X166311654Y-186506900D02*
X166168797Y-186578328D01*
X166168797Y-186578328D02*
X165883083Y-186578328D01*
X165883083Y-186578328D02*
X165740225Y-186506900D01*
X165740225Y-186506900D02*
X165668797Y-186364042D01*
X165668797Y-186364042D02*
X165668797Y-185792614D01*
X165668797Y-185792614D02*
X165740225Y-185649757D01*
X165740225Y-185649757D02*
X165883083Y-185578328D01*
X165883083Y-185578328D02*
X166168797Y-185578328D01*
X166168797Y-185578328D02*
X166311654Y-185649757D01*
X166311654Y-185649757D02*
X166383083Y-185792614D01*
X166383083Y-185792614D02*
X166383083Y-185935471D01*
X166383083Y-185935471D02*
X165668797Y-186078328D01*
X167025939Y-186578328D02*
X167025939Y-185578328D01*
X167025939Y-185864042D02*
X167097368Y-185721185D01*
X167097368Y-185721185D02*
X167168797Y-185649757D01*
X167168797Y-185649757D02*
X167311654Y-185578328D01*
X167311654Y-185578328D02*
X167454511Y-185578328D01*
X167883082Y-186506900D02*
X168025939Y-186578328D01*
X168025939Y-186578328D02*
X168311653Y-186578328D01*
X168311653Y-186578328D02*
X168454510Y-186506900D01*
X168454510Y-186506900D02*
X168525939Y-186364042D01*
X168525939Y-186364042D02*
X168525939Y-186292614D01*
X168525939Y-186292614D02*
X168454510Y-186149757D01*
X168454510Y-186149757D02*
X168311653Y-186078328D01*
X168311653Y-186078328D02*
X168097368Y-186078328D01*
X168097368Y-186078328D02*
X167954510Y-186006900D01*
X167954510Y-186006900D02*
X167883082Y-185864042D01*
X167883082Y-185864042D02*
X167883082Y-185792614D01*
X167883082Y-185792614D02*
X167954510Y-185649757D01*
X167954510Y-185649757D02*
X168097368Y-185578328D01*
X168097368Y-185578328D02*
X168311653Y-185578328D01*
X168311653Y-185578328D02*
X168454510Y-185649757D01*
X169168796Y-186578328D02*
X169168796Y-185578328D01*
X169168796Y-185078328D02*
X169097368Y-185149757D01*
X169097368Y-185149757D02*
X169168796Y-185221185D01*
X169168796Y-185221185D02*
X169240225Y-185149757D01*
X169240225Y-185149757D02*
X169168796Y-185078328D01*
X169168796Y-185078328D02*
X169168796Y-185221185D01*
X170525940Y-186578328D02*
X170525940Y-185078328D01*
X170525940Y-186506900D02*
X170383082Y-186578328D01*
X170383082Y-186578328D02*
X170097368Y-186578328D01*
X170097368Y-186578328D02*
X169954511Y-186506900D01*
X169954511Y-186506900D02*
X169883082Y-186435471D01*
X169883082Y-186435471D02*
X169811654Y-186292614D01*
X169811654Y-186292614D02*
X169811654Y-185864042D01*
X169811654Y-185864042D02*
X169883082Y-185721185D01*
X169883082Y-185721185D02*
X169954511Y-185649757D01*
X169954511Y-185649757D02*
X170097368Y-185578328D01*
X170097368Y-185578328D02*
X170383082Y-185578328D01*
X170383082Y-185578328D02*
X170525940Y-185649757D01*
X171883083Y-186578328D02*
X171883083Y-185792614D01*
X171883083Y-185792614D02*
X171811654Y-185649757D01*
X171811654Y-185649757D02*
X171668797Y-185578328D01*
X171668797Y-185578328D02*
X171383083Y-185578328D01*
X171383083Y-185578328D02*
X171240225Y-185649757D01*
X171883083Y-186506900D02*
X171740225Y-186578328D01*
X171740225Y-186578328D02*
X171383083Y-186578328D01*
X171383083Y-186578328D02*
X171240225Y-186506900D01*
X171240225Y-186506900D02*
X171168797Y-186364042D01*
X171168797Y-186364042D02*
X171168797Y-186221185D01*
X171168797Y-186221185D02*
X171240225Y-186078328D01*
X171240225Y-186078328D02*
X171383083Y-186006900D01*
X171383083Y-186006900D02*
X171740225Y-186006900D01*
X171740225Y-186006900D02*
X171883083Y-185935471D01*
X173240226Y-186578328D02*
X173240226Y-185078328D01*
X173240226Y-186506900D02*
X173097368Y-186578328D01*
X173097368Y-186578328D02*
X172811654Y-186578328D01*
X172811654Y-186578328D02*
X172668797Y-186506900D01*
X172668797Y-186506900D02*
X172597368Y-186435471D01*
X172597368Y-186435471D02*
X172525940Y-186292614D01*
X172525940Y-186292614D02*
X172525940Y-185864042D01*
X172525940Y-185864042D02*
X172597368Y-185721185D01*
X172597368Y-185721185D02*
X172668797Y-185649757D01*
X172668797Y-185649757D02*
X172811654Y-185578328D01*
X172811654Y-185578328D02*
X173097368Y-185578328D01*
X173097368Y-185578328D02*
X173240226Y-185649757D01*
X175740226Y-186578328D02*
X175740226Y-185078328D01*
X175740226Y-186506900D02*
X175597368Y-186578328D01*
X175597368Y-186578328D02*
X175311654Y-186578328D01*
X175311654Y-186578328D02*
X175168797Y-186506900D01*
X175168797Y-186506900D02*
X175097368Y-186435471D01*
X175097368Y-186435471D02*
X175025940Y-186292614D01*
X175025940Y-186292614D02*
X175025940Y-185864042D01*
X175025940Y-185864042D02*
X175097368Y-185721185D01*
X175097368Y-185721185D02*
X175168797Y-185649757D01*
X175168797Y-185649757D02*
X175311654Y-185578328D01*
X175311654Y-185578328D02*
X175597368Y-185578328D01*
X175597368Y-185578328D02*
X175740226Y-185649757D01*
X177025940Y-186506900D02*
X176883083Y-186578328D01*
X176883083Y-186578328D02*
X176597369Y-186578328D01*
X176597369Y-186578328D02*
X176454511Y-186506900D01*
X176454511Y-186506900D02*
X176383083Y-186364042D01*
X176383083Y-186364042D02*
X176383083Y-185792614D01*
X176383083Y-185792614D02*
X176454511Y-185649757D01*
X176454511Y-185649757D02*
X176597369Y-185578328D01*
X176597369Y-185578328D02*
X176883083Y-185578328D01*
X176883083Y-185578328D02*
X177025940Y-185649757D01*
X177025940Y-185649757D02*
X177097369Y-185792614D01*
X177097369Y-185792614D02*
X177097369Y-185935471D01*
X177097369Y-185935471D02*
X176383083Y-186078328D01*
X179597368Y-186578328D02*
X178883082Y-186578328D01*
X178883082Y-186578328D02*
X178883082Y-185078328D01*
X180311654Y-186578328D02*
X180168797Y-186506900D01*
X180168797Y-186506900D02*
X180097368Y-186435471D01*
X180097368Y-186435471D02*
X180025940Y-186292614D01*
X180025940Y-186292614D02*
X180025940Y-185864042D01*
X180025940Y-185864042D02*
X180097368Y-185721185D01*
X180097368Y-185721185D02*
X180168797Y-185649757D01*
X180168797Y-185649757D02*
X180311654Y-185578328D01*
X180311654Y-185578328D02*
X180525940Y-185578328D01*
X180525940Y-185578328D02*
X180668797Y-185649757D01*
X180668797Y-185649757D02*
X180740226Y-185721185D01*
X180740226Y-185721185D02*
X180811654Y-185864042D01*
X180811654Y-185864042D02*
X180811654Y-186292614D01*
X180811654Y-186292614D02*
X180740226Y-186435471D01*
X180740226Y-186435471D02*
X180668797Y-186506900D01*
X180668797Y-186506900D02*
X180525940Y-186578328D01*
X180525940Y-186578328D02*
X180311654Y-186578328D01*
X181383083Y-186506900D02*
X181525940Y-186578328D01*
X181525940Y-186578328D02*
X181811654Y-186578328D01*
X181811654Y-186578328D02*
X181954511Y-186506900D01*
X181954511Y-186506900D02*
X182025940Y-186364042D01*
X182025940Y-186364042D02*
X182025940Y-186292614D01*
X182025940Y-186292614D02*
X181954511Y-186149757D01*
X181954511Y-186149757D02*
X181811654Y-186078328D01*
X181811654Y-186078328D02*
X181597369Y-186078328D01*
X181597369Y-186078328D02*
X181454511Y-186006900D01*
X181454511Y-186006900D02*
X181383083Y-185864042D01*
X181383083Y-185864042D02*
X181383083Y-185792614D01*
X181383083Y-185792614D02*
X181454511Y-185649757D01*
X181454511Y-185649757D02*
X181597369Y-185578328D01*
X181597369Y-185578328D02*
X181811654Y-185578328D01*
X181811654Y-185578328D02*
X181954511Y-185649757D01*
X183740226Y-186149757D02*
X184454512Y-186149757D01*
X183597369Y-186578328D02*
X184097369Y-185078328D01*
X184097369Y-185078328D02*
X184597369Y-186578328D01*
X185097368Y-185578328D02*
X185097368Y-186578328D01*
X185097368Y-185721185D02*
X185168797Y-185649757D01*
X185168797Y-185649757D02*
X185311654Y-185578328D01*
X185311654Y-185578328D02*
X185525940Y-185578328D01*
X185525940Y-185578328D02*
X185668797Y-185649757D01*
X185668797Y-185649757D02*
X185740226Y-185792614D01*
X185740226Y-185792614D02*
X185740226Y-186578328D01*
X187097369Y-186578328D02*
X187097369Y-185078328D01*
X187097369Y-186506900D02*
X186954511Y-186578328D01*
X186954511Y-186578328D02*
X186668797Y-186578328D01*
X186668797Y-186578328D02*
X186525940Y-186506900D01*
X186525940Y-186506900D02*
X186454511Y-186435471D01*
X186454511Y-186435471D02*
X186383083Y-186292614D01*
X186383083Y-186292614D02*
X186383083Y-185864042D01*
X186383083Y-185864042D02*
X186454511Y-185721185D01*
X186454511Y-185721185D02*
X186525940Y-185649757D01*
X186525940Y-185649757D02*
X186668797Y-185578328D01*
X186668797Y-185578328D02*
X186954511Y-185578328D01*
X186954511Y-185578328D02*
X187097369Y-185649757D01*
X188383083Y-186506900D02*
X188240226Y-186578328D01*
X188240226Y-186578328D02*
X187954512Y-186578328D01*
X187954512Y-186578328D02*
X187811654Y-186506900D01*
X187811654Y-186506900D02*
X187740226Y-186364042D01*
X187740226Y-186364042D02*
X187740226Y-185792614D01*
X187740226Y-185792614D02*
X187811654Y-185649757D01*
X187811654Y-185649757D02*
X187954512Y-185578328D01*
X187954512Y-185578328D02*
X188240226Y-185578328D01*
X188240226Y-185578328D02*
X188383083Y-185649757D01*
X188383083Y-185649757D02*
X188454512Y-185792614D01*
X188454512Y-185792614D02*
X188454512Y-185935471D01*
X188454512Y-185935471D02*
X187740226Y-186078328D01*
X189025940Y-186506900D02*
X189168797Y-186578328D01*
X189168797Y-186578328D02*
X189454511Y-186578328D01*
X189454511Y-186578328D02*
X189597368Y-186506900D01*
X189597368Y-186506900D02*
X189668797Y-186364042D01*
X189668797Y-186364042D02*
X189668797Y-186292614D01*
X189668797Y-186292614D02*
X189597368Y-186149757D01*
X189597368Y-186149757D02*
X189454511Y-186078328D01*
X189454511Y-186078328D02*
X189240226Y-186078328D01*
X189240226Y-186078328D02*
X189097368Y-186006900D01*
X189097368Y-186006900D02*
X189025940Y-185864042D01*
X189025940Y-185864042D02*
X189025940Y-185792614D01*
X189025940Y-185792614D02*
X189097368Y-185649757D01*
X189097368Y-185649757D02*
X189240226Y-185578328D01*
X189240226Y-185578328D02*
X189454511Y-185578328D01*
X189454511Y-185578328D02*
X189597368Y-185649757D01*
X191883083Y-187149757D02*
X191811654Y-187078328D01*
X191811654Y-187078328D02*
X191668797Y-186864042D01*
X191668797Y-186864042D02*
X191597369Y-186721185D01*
X191597369Y-186721185D02*
X191525940Y-186506900D01*
X191525940Y-186506900D02*
X191454511Y-186149757D01*
X191454511Y-186149757D02*
X191454511Y-185864042D01*
X191454511Y-185864042D02*
X191525940Y-185506900D01*
X191525940Y-185506900D02*
X191597369Y-185292614D01*
X191597369Y-185292614D02*
X191668797Y-185149757D01*
X191668797Y-185149757D02*
X191811654Y-184935471D01*
X191811654Y-184935471D02*
X191883083Y-184864042D01*
X192454511Y-185078328D02*
X192454511Y-186292614D01*
X192454511Y-186292614D02*
X192525940Y-186435471D01*
X192525940Y-186435471D02*
X192597369Y-186506900D01*
X192597369Y-186506900D02*
X192740226Y-186578328D01*
X192740226Y-186578328D02*
X193025940Y-186578328D01*
X193025940Y-186578328D02*
X193168797Y-186506900D01*
X193168797Y-186506900D02*
X193240226Y-186435471D01*
X193240226Y-186435471D02*
X193311654Y-186292614D01*
X193311654Y-186292614D02*
X193311654Y-185078328D01*
X194740226Y-186578328D02*
X194025940Y-186578328D01*
X194025940Y-186578328D02*
X194025940Y-185078328D01*
X195168798Y-186149757D02*
X195883084Y-186149757D01*
X195025941Y-186578328D02*
X195525941Y-185078328D01*
X195525941Y-185078328D02*
X196025941Y-186578328D01*
X196383083Y-187149757D02*
X196454512Y-187078328D01*
X196454512Y-187078328D02*
X196597369Y-186864042D01*
X196597369Y-186864042D02*
X196668798Y-186721185D01*
X196668798Y-186721185D02*
X196740226Y-186506900D01*
X196740226Y-186506900D02*
X196811655Y-186149757D01*
X196811655Y-186149757D02*
X196811655Y-185864042D01*
X196811655Y-185864042D02*
X196740226Y-185506900D01*
X196740226Y-185506900D02*
X196668798Y-185292614D01*
X196668798Y-185292614D02*
X196597369Y-185149757D01*
X196597369Y-185149757D02*
X196454512Y-184935471D01*
X196454512Y-184935471D02*
X196383083Y-184864042D01*
D10*
D11*
X160784398Y-183157557D02*
X161498684Y-183157557D01*
X160641541Y-183586128D02*
X161141541Y-182086128D01*
X161141541Y-182086128D02*
X161641541Y-183586128D01*
X162355826Y-183586128D02*
X162212969Y-183514700D01*
X162212969Y-183514700D02*
X162141540Y-183371842D01*
X162141540Y-183371842D02*
X162141540Y-182086128D01*
X162927254Y-183586128D02*
X162927254Y-182086128D01*
X162927254Y-182657557D02*
X163070112Y-182586128D01*
X163070112Y-182586128D02*
X163355826Y-182586128D01*
X163355826Y-182586128D02*
X163498683Y-182657557D01*
X163498683Y-182657557D02*
X163570112Y-182728985D01*
X163570112Y-182728985D02*
X163641540Y-182871842D01*
X163641540Y-182871842D02*
X163641540Y-183300414D01*
X163641540Y-183300414D02*
X163570112Y-183443271D01*
X163570112Y-183443271D02*
X163498683Y-183514700D01*
X163498683Y-183514700D02*
X163355826Y-183586128D01*
X163355826Y-183586128D02*
X163070112Y-183586128D01*
X163070112Y-183586128D02*
X162927254Y-183514700D01*
X164855826Y-183514700D02*
X164712969Y-183586128D01*
X164712969Y-183586128D02*
X164427255Y-183586128D01*
X164427255Y-183586128D02*
X164284397Y-183514700D01*
X164284397Y-183514700D02*
X164212969Y-183371842D01*
X164212969Y-183371842D02*
X164212969Y-182800414D01*
X164212969Y-182800414D02*
X164284397Y-182657557D01*
X164284397Y-182657557D02*
X164427255Y-182586128D01*
X164427255Y-182586128D02*
X164712969Y-182586128D01*
X164712969Y-182586128D02*
X164855826Y-182657557D01*
X164855826Y-182657557D02*
X164927255Y-182800414D01*
X164927255Y-182800414D02*
X164927255Y-182943271D01*
X164927255Y-182943271D02*
X164212969Y-183086128D01*
X165570111Y-183586128D02*
X165570111Y-182586128D01*
X165570111Y-182871842D02*
X165641540Y-182728985D01*
X165641540Y-182728985D02*
X165712969Y-182657557D01*
X165712969Y-182657557D02*
X165855826Y-182586128D01*
X165855826Y-182586128D02*
X165998683Y-182586128D01*
X166284397Y-182586128D02*
X166855825Y-182586128D01*
X166498682Y-182086128D02*
X166498682Y-183371842D01*
X166498682Y-183371842D02*
X166570111Y-183514700D01*
X166570111Y-183514700D02*
X166712968Y-183586128D01*
X166712968Y-183586128D02*
X166855825Y-183586128D01*
X167570111Y-183586128D02*
X167427254Y-183514700D01*
X167427254Y-183514700D02*
X167355825Y-183443271D01*
X167355825Y-183443271D02*
X167284397Y-183300414D01*
X167284397Y-183300414D02*
X167284397Y-182871842D01*
X167284397Y-182871842D02*
X167355825Y-182728985D01*
X167355825Y-182728985D02*
X167427254Y-182657557D01*
X167427254Y-182657557D02*
X167570111Y-182586128D01*
X167570111Y-182586128D02*
X167784397Y-182586128D01*
X167784397Y-182586128D02*
X167927254Y-182657557D01*
X167927254Y-182657557D02*
X167998683Y-182728985D01*
X167998683Y-182728985D02*
X168070111Y-182871842D01*
X168070111Y-182871842D02*
X168070111Y-183300414D01*
X168070111Y-183300414D02*
X167998683Y-183443271D01*
X167998683Y-183443271D02*
X167927254Y-183514700D01*
X167927254Y-183514700D02*
X167784397Y-183586128D01*
X167784397Y-183586128D02*
X167570111Y-183586128D01*
X169855825Y-183586128D02*
X169855825Y-182086128D01*
X169855825Y-182086128D02*
X170355825Y-183157557D01*
X170355825Y-183157557D02*
X170855825Y-182086128D01*
X170855825Y-182086128D02*
X170855825Y-183586128D01*
X172141540Y-183514700D02*
X171998683Y-183586128D01*
X171998683Y-183586128D02*
X171712969Y-183586128D01*
X171712969Y-183586128D02*
X171570111Y-183514700D01*
X171570111Y-183514700D02*
X171498683Y-183371842D01*
X171498683Y-183371842D02*
X171498683Y-182800414D01*
X171498683Y-182800414D02*
X171570111Y-182657557D01*
X171570111Y-182657557D02*
X171712969Y-182586128D01*
X171712969Y-182586128D02*
X171998683Y-182586128D01*
X171998683Y-182586128D02*
X172141540Y-182657557D01*
X172141540Y-182657557D02*
X172212969Y-182800414D01*
X172212969Y-182800414D02*
X172212969Y-182943271D01*
X172212969Y-182943271D02*
X171498683Y-183086128D01*
X173498683Y-183586128D02*
X173498683Y-182086128D01*
X173498683Y-183514700D02*
X173355825Y-183586128D01*
X173355825Y-183586128D02*
X173070111Y-183586128D01*
X173070111Y-183586128D02*
X172927254Y-183514700D01*
X172927254Y-183514700D02*
X172855825Y-183443271D01*
X172855825Y-183443271D02*
X172784397Y-183300414D01*
X172784397Y-183300414D02*
X172784397Y-182871842D01*
X172784397Y-182871842D02*
X172855825Y-182728985D01*
X172855825Y-182728985D02*
X172927254Y-182657557D01*
X172927254Y-182657557D02*
X173070111Y-182586128D01*
X173070111Y-182586128D02*
X173355825Y-182586128D01*
X173355825Y-182586128D02*
X173498683Y-182657557D01*
X174212968Y-183586128D02*
X174212968Y-182586128D01*
X174212968Y-182871842D02*
X174284397Y-182728985D01*
X174284397Y-182728985D02*
X174355826Y-182657557D01*
X174355826Y-182657557D02*
X174498683Y-182586128D01*
X174498683Y-182586128D02*
X174641540Y-182586128D01*
X175784397Y-183586128D02*
X175784397Y-182800414D01*
X175784397Y-182800414D02*
X175712968Y-182657557D01*
X175712968Y-182657557D02*
X175570111Y-182586128D01*
X175570111Y-182586128D02*
X175284397Y-182586128D01*
X175284397Y-182586128D02*
X175141539Y-182657557D01*
X175784397Y-183514700D02*
X175641539Y-183586128D01*
X175641539Y-183586128D02*
X175284397Y-183586128D01*
X175284397Y-183586128D02*
X175141539Y-183514700D01*
X175141539Y-183514700D02*
X175070111Y-183371842D01*
X175070111Y-183371842D02*
X175070111Y-183228985D01*
X175070111Y-183228985D02*
X175141539Y-183086128D01*
X175141539Y-183086128D02*
X175284397Y-183014700D01*
X175284397Y-183014700D02*
X175641539Y-183014700D01*
X175641539Y-183014700D02*
X175784397Y-182943271D01*
X176498682Y-182586128D02*
X176498682Y-183586128D01*
X176498682Y-182728985D02*
X176570111Y-182657557D01*
X176570111Y-182657557D02*
X176712968Y-182586128D01*
X176712968Y-182586128D02*
X176927254Y-182586128D01*
X176927254Y-182586128D02*
X177070111Y-182657557D01*
X177070111Y-182657557D02*
X177141540Y-182800414D01*
X177141540Y-182800414D02*
X177141540Y-183586128D01*
X178070111Y-183586128D02*
X177927254Y-183514700D01*
X177927254Y-183514700D02*
X177855825Y-183443271D01*
X177855825Y-183443271D02*
X177784397Y-183300414D01*
X177784397Y-183300414D02*
X177784397Y-182871842D01*
X177784397Y-182871842D02*
X177855825Y-182728985D01*
X177855825Y-182728985D02*
X177927254Y-182657557D01*
X177927254Y-182657557D02*
X178070111Y-182586128D01*
X178070111Y-182586128D02*
X178284397Y-182586128D01*
X178284397Y-182586128D02*
X178427254Y-182657557D01*
X178427254Y-182657557D02*
X178498683Y-182728985D01*
X178498683Y-182728985D02*
X178570111Y-182871842D01*
X178570111Y-182871842D02*
X178570111Y-183300414D01*
X178570111Y-183300414D02*
X178498683Y-183443271D01*
X178498683Y-183443271D02*
X178427254Y-183514700D01*
X178427254Y-183514700D02*
X178284397Y-183586128D01*
X178284397Y-183586128D02*
X178070111Y-183586128D01*
X180784397Y-184157557D02*
X180712968Y-184086128D01*
X180712968Y-184086128D02*
X180570111Y-183871842D01*
X180570111Y-183871842D02*
X180498683Y-183728985D01*
X180498683Y-183728985D02*
X180427254Y-183514700D01*
X180427254Y-183514700D02*
X180355825Y-183157557D01*
X180355825Y-183157557D02*
X180355825Y-182871842D01*
X180355825Y-182871842D02*
X180427254Y-182514700D01*
X180427254Y-182514700D02*
X180498683Y-182300414D01*
X180498683Y-182300414D02*
X180570111Y-182157557D01*
X180570111Y-182157557D02*
X180712968Y-181943271D01*
X180712968Y-181943271D02*
X180784397Y-181871842D01*
X181355825Y-183586128D02*
X181355825Y-182586128D01*
X181355825Y-182728985D02*
X181427254Y-182657557D01*
X181427254Y-182657557D02*
X181570111Y-182586128D01*
X181570111Y-182586128D02*
X181784397Y-182586128D01*
X181784397Y-182586128D02*
X181927254Y-182657557D01*
X181927254Y-182657557D02*
X181998683Y-182800414D01*
X181998683Y-182800414D02*
X181998683Y-183586128D01*
X181998683Y-182800414D02*
X182070111Y-182657557D01*
X182070111Y-182657557D02*
X182212968Y-182586128D01*
X182212968Y-182586128D02*
X182427254Y-182586128D01*
X182427254Y-182586128D02*
X182570111Y-182657557D01*
X182570111Y-182657557D02*
X182641540Y-182800414D01*
X182641540Y-182800414D02*
X182641540Y-183586128D01*
X183927254Y-183514700D02*
X183784397Y-183586128D01*
X183784397Y-183586128D02*
X183498683Y-183586128D01*
X183498683Y-183586128D02*
X183355825Y-183514700D01*
X183355825Y-183514700D02*
X183284397Y-183371842D01*
X183284397Y-183371842D02*
X183284397Y-182800414D01*
X183284397Y-182800414D02*
X183355825Y-182657557D01*
X183355825Y-182657557D02*
X183498683Y-182586128D01*
X183498683Y-182586128D02*
X183784397Y-182586128D01*
X183784397Y-182586128D02*
X183927254Y-182657557D01*
X183927254Y-182657557D02*
X183998683Y-182800414D01*
X183998683Y-182800414D02*
X183998683Y-182943271D01*
X183998683Y-182943271D02*
X183284397Y-183086128D01*
X185284397Y-183586128D02*
X185284397Y-182086128D01*
X185284397Y-183514700D02*
X185141539Y-183586128D01*
X185141539Y-183586128D02*
X184855825Y-183586128D01*
X184855825Y-183586128D02*
X184712968Y-183514700D01*
X184712968Y-183514700D02*
X184641539Y-183443271D01*
X184641539Y-183443271D02*
X184570111Y-183300414D01*
X184570111Y-183300414D02*
X184570111Y-182871842D01*
X184570111Y-182871842D02*
X184641539Y-182728985D01*
X184641539Y-182728985D02*
X184712968Y-182657557D01*
X184712968Y-182657557D02*
X184855825Y-182586128D01*
X184855825Y-182586128D02*
X185141539Y-182586128D01*
X185141539Y-182586128D02*
X185284397Y-182657557D01*
X185998682Y-183586128D02*
X185998682Y-182586128D01*
X185998682Y-182871842D02*
X186070111Y-182728985D01*
X186070111Y-182728985D02*
X186141540Y-182657557D01*
X186141540Y-182657557D02*
X186284397Y-182586128D01*
X186284397Y-182586128D02*
X186427254Y-182586128D01*
X187570111Y-183586128D02*
X187570111Y-182800414D01*
X187570111Y-182800414D02*
X187498682Y-182657557D01*
X187498682Y-182657557D02*
X187355825Y-182586128D01*
X187355825Y-182586128D02*
X187070111Y-182586128D01*
X187070111Y-182586128D02*
X186927253Y-182657557D01*
X187570111Y-183514700D02*
X187427253Y-183586128D01*
X187427253Y-183586128D02*
X187070111Y-183586128D01*
X187070111Y-183586128D02*
X186927253Y-183514700D01*
X186927253Y-183514700D02*
X186855825Y-183371842D01*
X186855825Y-183371842D02*
X186855825Y-183228985D01*
X186855825Y-183228985D02*
X186927253Y-183086128D01*
X186927253Y-183086128D02*
X187070111Y-183014700D01*
X187070111Y-183014700D02*
X187427253Y-183014700D01*
X187427253Y-183014700D02*
X187570111Y-182943271D01*
X188284396Y-182586128D02*
X188284396Y-183586128D01*
X188284396Y-182728985D02*
X188355825Y-182657557D01*
X188355825Y-182657557D02*
X188498682Y-182586128D01*
X188498682Y-182586128D02*
X188712968Y-182586128D01*
X188712968Y-182586128D02*
X188855825Y-182657557D01*
X188855825Y-182657557D02*
X188927254Y-182800414D01*
X188927254Y-182800414D02*
X188927254Y-183586128D01*
X189855825Y-183586128D02*
X189712968Y-183514700D01*
X189712968Y-183514700D02*
X189641539Y-183443271D01*
X189641539Y-183443271D02*
X189570111Y-183300414D01*
X189570111Y-183300414D02*
X189570111Y-182871842D01*
X189570111Y-182871842D02*
X189641539Y-182728985D01*
X189641539Y-182728985D02*
X189712968Y-182657557D01*
X189712968Y-182657557D02*
X189855825Y-182586128D01*
X189855825Y-182586128D02*
X190070111Y-182586128D01*
X190070111Y-182586128D02*
X190212968Y-182657557D01*
X190212968Y-182657557D02*
X190284397Y-182728985D01*
X190284397Y-182728985D02*
X190355825Y-182871842D01*
X190355825Y-182871842D02*
X190355825Y-183300414D01*
X190355825Y-183300414D02*
X190284397Y-183443271D01*
X190284397Y-183443271D02*
X190212968Y-183514700D01*
X190212968Y-183514700D02*
X190070111Y-183586128D01*
X190070111Y-183586128D02*
X189855825Y-183586128D01*
X190998682Y-183443271D02*
X191070111Y-183514700D01*
X191070111Y-183514700D02*
X190998682Y-183586128D01*
X190998682Y-183586128D02*
X190927254Y-183514700D01*
X190927254Y-183514700D02*
X190998682Y-183443271D01*
X190998682Y-183443271D02*
X190998682Y-183586128D01*
X192355826Y-183586128D02*
X192355826Y-182800414D01*
X192355826Y-182800414D02*
X192284397Y-182657557D01*
X192284397Y-182657557D02*
X192141540Y-182586128D01*
X192141540Y-182586128D02*
X191855826Y-182586128D01*
X191855826Y-182586128D02*
X191712968Y-182657557D01*
X192355826Y-183514700D02*
X192212968Y-183586128D01*
X192212968Y-183586128D02*
X191855826Y-183586128D01*
X191855826Y-183586128D02*
X191712968Y-183514700D01*
X191712968Y-183514700D02*
X191641540Y-183371842D01*
X191641540Y-183371842D02*
X191641540Y-183228985D01*
X191641540Y-183228985D02*
X191712968Y-183086128D01*
X191712968Y-183086128D02*
X191855826Y-183014700D01*
X191855826Y-183014700D02*
X192212968Y-183014700D01*
X192212968Y-183014700D02*
X192355826Y-182943271D01*
X193284397Y-183586128D02*
X193141540Y-183514700D01*
X193141540Y-183514700D02*
X193070111Y-183371842D01*
X193070111Y-183371842D02*
X193070111Y-182086128D01*
X193855825Y-183586128D02*
X193855825Y-182086128D01*
X193855825Y-182657557D02*
X193998683Y-182586128D01*
X193998683Y-182586128D02*
X194284397Y-182586128D01*
X194284397Y-182586128D02*
X194427254Y-182657557D01*
X194427254Y-182657557D02*
X194498683Y-182728985D01*
X194498683Y-182728985D02*
X194570111Y-182871842D01*
X194570111Y-182871842D02*
X194570111Y-183300414D01*
X194570111Y-183300414D02*
X194498683Y-183443271D01*
X194498683Y-183443271D02*
X194427254Y-183514700D01*
X194427254Y-183514700D02*
X194284397Y-183586128D01*
X194284397Y-183586128D02*
X193998683Y-183586128D01*
X193998683Y-183586128D02*
X193855825Y-183514700D01*
X195784397Y-183514700D02*
X195641540Y-183586128D01*
X195641540Y-183586128D02*
X195355826Y-183586128D01*
X195355826Y-183586128D02*
X195212968Y-183514700D01*
X195212968Y-183514700D02*
X195141540Y-183371842D01*
X195141540Y-183371842D02*
X195141540Y-182800414D01*
X195141540Y-182800414D02*
X195212968Y-182657557D01*
X195212968Y-182657557D02*
X195355826Y-182586128D01*
X195355826Y-182586128D02*
X195641540Y-182586128D01*
X195641540Y-182586128D02*
X195784397Y-182657557D01*
X195784397Y-182657557D02*
X195855826Y-182800414D01*
X195855826Y-182800414D02*
X195855826Y-182943271D01*
X195855826Y-182943271D02*
X195141540Y-183086128D01*
X196498682Y-183586128D02*
X196498682Y-182586128D01*
X196498682Y-182871842D02*
X196570111Y-182728985D01*
X196570111Y-182728985D02*
X196641540Y-182657557D01*
X196641540Y-182657557D02*
X196784397Y-182586128D01*
X196784397Y-182586128D02*
X196927254Y-182586128D01*
X197212968Y-182586128D02*
X197784396Y-182586128D01*
X197427253Y-182086128D02*
X197427253Y-183371842D01*
X197427253Y-183371842D02*
X197498682Y-183514700D01*
X197498682Y-183514700D02*
X197641539Y-183586128D01*
X197641539Y-183586128D02*
X197784396Y-183586128D01*
X198498682Y-183586128D02*
X198355825Y-183514700D01*
X198355825Y-183514700D02*
X198284396Y-183443271D01*
X198284396Y-183443271D02*
X198212968Y-183300414D01*
X198212968Y-183300414D02*
X198212968Y-182871842D01*
X198212968Y-182871842D02*
X198284396Y-182728985D01*
X198284396Y-182728985D02*
X198355825Y-182657557D01*
X198355825Y-182657557D02*
X198498682Y-182586128D01*
X198498682Y-182586128D02*
X198712968Y-182586128D01*
X198712968Y-182586128D02*
X198855825Y-182657557D01*
X198855825Y-182657557D02*
X198927254Y-182728985D01*
X198927254Y-182728985D02*
X198998682Y-182871842D01*
X198998682Y-182871842D02*
X198998682Y-183300414D01*
X198998682Y-183300414D02*
X198927254Y-183443271D01*
X198927254Y-183443271D02*
X198855825Y-183514700D01*
X198855825Y-183514700D02*
X198712968Y-183586128D01*
X198712968Y-183586128D02*
X198498682Y-183586128D01*
X200570111Y-182871842D02*
X200498682Y-182800414D01*
X200498682Y-182800414D02*
X200355825Y-182728985D01*
X200355825Y-182728985D02*
X200212968Y-182728985D01*
X200212968Y-182728985D02*
X200070111Y-182800414D01*
X200070111Y-182800414D02*
X199998682Y-182871842D01*
X199998682Y-182871842D02*
X199927254Y-183014700D01*
X199927254Y-183014700D02*
X199927254Y-183157557D01*
X199927254Y-183157557D02*
X199998682Y-183300414D01*
X199998682Y-183300414D02*
X200070111Y-183371842D01*
X200070111Y-183371842D02*
X200212968Y-183443271D01*
X200212968Y-183443271D02*
X200355825Y-183443271D01*
X200355825Y-183443271D02*
X200498682Y-183371842D01*
X200498682Y-183371842D02*
X200570111Y-183300414D01*
X200570111Y-182728985D02*
X200570111Y-183300414D01*
X200570111Y-183300414D02*
X200641539Y-183371842D01*
X200641539Y-183371842D02*
X200712968Y-183371842D01*
X200712968Y-183371842D02*
X200855825Y-183300414D01*
X200855825Y-183300414D02*
X200927254Y-183157557D01*
X200927254Y-183157557D02*
X200927254Y-182800414D01*
X200927254Y-182800414D02*
X200784397Y-182586128D01*
X200784397Y-182586128D02*
X200570111Y-182443271D01*
X200570111Y-182443271D02*
X200284397Y-182371842D01*
X200284397Y-182371842D02*
X199998682Y-182443271D01*
X199998682Y-182443271D02*
X199784397Y-182586128D01*
X199784397Y-182586128D02*
X199641539Y-182800414D01*
X199641539Y-182800414D02*
X199570111Y-183086128D01*
X199570111Y-183086128D02*
X199641539Y-183371842D01*
X199641539Y-183371842D02*
X199784397Y-183586128D01*
X199784397Y-183586128D02*
X199998682Y-183728985D01*
X199998682Y-183728985D02*
X200284397Y-183800414D01*
X200284397Y-183800414D02*
X200570111Y-183728985D01*
X200570111Y-183728985D02*
X200784397Y-183586128D01*
X202212968Y-182586128D02*
X202212968Y-183586128D01*
X201570110Y-182586128D02*
X201570110Y-183371842D01*
X201570110Y-183371842D02*
X201641539Y-183514700D01*
X201641539Y-183514700D02*
X201784396Y-183586128D01*
X201784396Y-183586128D02*
X201998682Y-183586128D01*
X201998682Y-183586128D02*
X202141539Y-183514700D01*
X202141539Y-183514700D02*
X202212968Y-183443271D01*
X203141539Y-183586128D02*
X202998682Y-183514700D01*
X202998682Y-183514700D02*
X202927253Y-183371842D01*
X202927253Y-183371842D02*
X202927253Y-182086128D01*
X204355825Y-183586128D02*
X204355825Y-182800414D01*
X204355825Y-182800414D02*
X204284396Y-182657557D01*
X204284396Y-182657557D02*
X204141539Y-182586128D01*
X204141539Y-182586128D02*
X203855825Y-182586128D01*
X203855825Y-182586128D02*
X203712967Y-182657557D01*
X204355825Y-183514700D02*
X204212967Y-183586128D01*
X204212967Y-183586128D02*
X203855825Y-183586128D01*
X203855825Y-183586128D02*
X203712967Y-183514700D01*
X203712967Y-183514700D02*
X203641539Y-183371842D01*
X203641539Y-183371842D02*
X203641539Y-183228985D01*
X203641539Y-183228985D02*
X203712967Y-183086128D01*
X203712967Y-183086128D02*
X203855825Y-183014700D01*
X203855825Y-183014700D02*
X204212967Y-183014700D01*
X204212967Y-183014700D02*
X204355825Y-182943271D01*
X205070110Y-183443271D02*
X205141539Y-183514700D01*
X205141539Y-183514700D02*
X205070110Y-183586128D01*
X205070110Y-183586128D02*
X204998682Y-183514700D01*
X204998682Y-183514700D02*
X205070110Y-183443271D01*
X205070110Y-183443271D02*
X205070110Y-183586128D01*
X205641539Y-182586128D02*
X205998682Y-183586128D01*
X205998682Y-183586128D02*
X206355825Y-182586128D01*
X207498682Y-183514700D02*
X207355825Y-183586128D01*
X207355825Y-183586128D02*
X207070111Y-183586128D01*
X207070111Y-183586128D02*
X206927253Y-183514700D01*
X206927253Y-183514700D02*
X206855825Y-183371842D01*
X206855825Y-183371842D02*
X206855825Y-182800414D01*
X206855825Y-182800414D02*
X206927253Y-182657557D01*
X206927253Y-182657557D02*
X207070111Y-182586128D01*
X207070111Y-182586128D02*
X207355825Y-182586128D01*
X207355825Y-182586128D02*
X207498682Y-182657557D01*
X207498682Y-182657557D02*
X207570111Y-182800414D01*
X207570111Y-182800414D02*
X207570111Y-182943271D01*
X207570111Y-182943271D02*
X206855825Y-183086128D01*
X208070110Y-184157557D02*
X208141539Y-184086128D01*
X208141539Y-184086128D02*
X208284396Y-183871842D01*
X208284396Y-183871842D02*
X208355825Y-183728985D01*
X208355825Y-183728985D02*
X208427253Y-183514700D01*
X208427253Y-183514700D02*
X208498682Y-183157557D01*
X208498682Y-183157557D02*
X208498682Y-182871842D01*
X208498682Y-182871842D02*
X208427253Y-182514700D01*
X208427253Y-182514700D02*
X208355825Y-182300414D01*
X208355825Y-182300414D02*
X208284396Y-182157557D01*
X208284396Y-182157557D02*
X208141539Y-181943271D01*
X208141539Y-181943271D02*
X208070110Y-181871842D01*
D10*
D11*
X179400000Y-197400000D02*
X179400000Y-200400000D01*
D10*
D11*
X243400000Y-197400000D02*
X243400000Y-203900000D01*
D14*
X45720000Y-63500000D02*
X45720000Y-111506000D01*
X45720000Y-63500000D02*
G75*
G02*
X50800000Y-58420000I5080000J0D01*
G01*
X45720000Y-120650000D02*
X45720000Y-124460000D01*
X45720000Y-120650000D02*
X45974000Y-120396000D01*
X45974000Y-111760000D02*
X45720000Y-111506000D01*
X45974000Y-111760000D02*
X45974000Y-120396000D01*
X50800000Y-58420000D02*
X119380000Y-58420000D01*
X50800000Y-129540000D02*
G75*
G02*
X45720000Y-124460000I0J5080000D01*
G01*
X119380000Y-58420000D02*
G75*
G02*
X124460000Y-63500000I0J-5080000D01*
G01*
X119380000Y-129540000D02*
X50800000Y-129540000D01*
X124460000Y-63500000D02*
X124460000Y-124460000D01*
X124460000Y-124460000D02*
G75*
G02*
X119380000Y-129540000I-5080000J0D01*
G01*
M02*
