M48
; DRILL file {KiCad 9.0.8-9.0.8~ubuntu25.10.1} date 2026-04-20T17:10:37-0400
; FORMAT={-:-/ absolute / metric / decimal}
; #@! TF.CreationDate,2026-04-20T17:10:37-04:00
; #@! TF.GenerationSoftware,Kicad,Pcbnew,9.0.8-9.0.8~ubuntu25.10.1
; #@! TF.FileFunction,Plated,1,2,PTH
FMAT,2
METRIC
; #@! TA.AperFunction,Plated,PTH,ViaDrill
T1C0.300
; #@! TA.AperFunction,Plated,PTH,ViaDrill
T2C0.400
; #@! TA.AperFunction,Plated,PTH,ComponentDrill
T3C0.500
; #@! TA.AperFunction,Plated,PTH,ComponentDrill
T4C0.700
; #@! TA.AperFunction,Plated,PTH,ComponentDrill
T5C0.750
; #@! TA.AperFunction,Plated,PTH,ComponentDrill
T6C0.800
; #@! TA.AperFunction,Plated,PTH,ComponentDrill
T7C0.900
; #@! TA.AperFunction,Plated,PTH,ComponentDrill
T8C1.000
; #@! TA.AperFunction,Plated,PTH,ComponentDrill
T9C1.100
; #@! TA.AperFunction,Plated,PTH,ComponentDrill
T10C1.300
; #@! TA.AperFunction,Plated,PTH,ComponentDrill
T11C1.500
; #@! TA.AperFunction,Plated,PTH,ComponentDrill
T12C1.600
; #@! TA.AperFunction,Plated,PTH,ComponentDrill
T13C3.200
%
G90
G05
T1
X48.768Y-93.98
X50.546Y-106.934
X52.07Y-97.79
X55.88Y-84.328
X55.88Y-86.36
X55.88Y-92.456
X57.15Y-68.58
X59.944Y-70.104
X60.96Y-77.47
X62.23Y-75.565
X63.5Y-70.104
X63.5Y-77.47
X64.77Y-63.5
X68.58Y-63.5
X69.85Y-70.866
X69.85Y-75.184
X73.025Y-71.755
X73.025Y-76.2
X74.93Y-68.58
X74.93Y-77.47
X77.216Y-71.374
X77.216Y-74.676
X78.74Y-63.5
X82.55Y-63.5
X82.55Y-93.98
X83.82Y-72.136
X83.82Y-76.454
X83.82Y-93.98
X85.09Y-93.98
X86.36Y-93.98
X88.9Y-71.12
X88.9Y-77.47
X91.44Y-74.295
X91.44Y-77.47
X92.71Y-63.5
X96.52Y-63.5
X97.79Y-72.644
X97.79Y-76.454
X102.87Y-71.12
X102.87Y-77.47
X105.41Y-73.914
X105.41Y-77.216
X106.68Y-63.5
X110.49Y-63.5
X120.142Y-106.172
X123.19Y-81.28
X123.19Y-83.058
X123.444Y-98.298
T2
X120.396Y-84.328
T3
X48.4Y-63.5
X48.4Y-124.46
X49.103Y-61.803
X49.103Y-65.197
X49.103Y-122.763
X49.103Y-126.157
X50.8Y-61.1
X50.8Y-65.9
X50.8Y-122.06
X50.8Y-126.86
X52.497Y-61.803
X52.497Y-65.197
X52.497Y-122.763
X52.497Y-126.157
X53.2Y-63.5
X53.2Y-124.46
X116.98Y-63.5
X116.98Y-124.46
X117.683Y-61.803
X117.683Y-65.197
X117.683Y-122.763
X117.683Y-126.157
X119.38Y-61.1
X119.38Y-65.9
X119.38Y-122.06
X119.38Y-126.86
X121.077Y-61.803
X121.077Y-65.197
X121.077Y-122.763
X121.077Y-126.157
X121.78Y-63.5
X121.78Y-124.46
T4
X66.04Y-69.85
X66.04Y-77.47
X80.01Y-69.85
X80.01Y-77.47
X85.725Y-114.3
X85.725Y-121.92
X89.535Y-114.3
X89.535Y-121.92
X93.472Y-110.744
X93.98Y-69.85
X93.98Y-77.47
X101.092Y-110.744
X107.95Y-69.85
X107.95Y-77.47
X117.475Y-93.98
X117.475Y-101.6
X121.92Y-100.076
X121.92Y-107.696
T5
X58.42Y-109.22
X59.69Y-107.95
X60.96Y-109.22
T6
X47.07Y-93.98
X47.07Y-109.22
X48.3Y-88.9
X50.8Y-88.9
X52.07Y-93.98
X52.07Y-109.22
X54.864Y-98.632
X54.864Y-103.632
X55.88Y-66.04
X55.88Y-81.28
X55.88Y-119.38
X55.88Y-127.0
X57.19Y-114.3
X58.42Y-66.04
X58.42Y-81.28
X58.42Y-119.38
X58.42Y-127.0
X59.69Y-114.3
X60.96Y-66.04
X60.96Y-81.28
X60.96Y-86.36
X60.96Y-101.6
X60.96Y-119.38
X60.96Y-127.0
X63.5Y-66.04
X63.5Y-81.28
X63.5Y-86.36
X63.5Y-101.6
X63.5Y-119.38
X63.5Y-127.0
X63.54Y-114.3
X65.024Y-109.22
X66.04Y-66.04
X66.04Y-81.28
X66.04Y-86.36
X66.04Y-101.6
X66.04Y-114.3
X66.04Y-119.38
X66.04Y-127.0
X68.58Y-86.36
X68.58Y-101.6
X68.58Y-119.38
X68.58Y-127.0
X69.85Y-66.04
X69.85Y-81.28
X70.024Y-109.22
X71.12Y-86.36
X71.12Y-101.6
X71.12Y-119.38
X71.12Y-127.0
X71.16Y-114.3
X72.39Y-66.04
X72.39Y-81.28
X73.66Y-86.36
X73.66Y-101.6
X73.66Y-114.3
X73.66Y-119.38
X73.66Y-127.0
X74.93Y-66.04
X74.93Y-81.28
X76.2Y-86.36
X76.2Y-101.6
X76.2Y-109.22
X77.47Y-66.04
X77.47Y-81.28
X77.47Y-118.11
X77.47Y-125.73
X78.74Y-86.36
X78.74Y-101.6
X79.736Y-112.756
X79.97Y-118.11
X79.97Y-125.73
X80.01Y-66.04
X80.01Y-81.28
X81.28Y-86.36
X81.28Y-101.6
X83.82Y-66.04
X83.82Y-81.28
X83.82Y-86.36
X83.82Y-101.6
X85.725Y-107.95
X86.36Y-66.04
X86.36Y-81.28
X86.36Y-86.36
X86.36Y-101.6
X88.9Y-66.04
X88.9Y-81.28
X88.9Y-86.36
X88.9Y-101.6
X90.725Y-107.95
X91.44Y-66.04
X91.44Y-81.28
X91.44Y-86.36
X91.44Y-101.6
X93.472Y-107.95
X93.98Y-66.04
X93.98Y-81.28
X93.98Y-86.36
X93.98Y-101.6
X95.885Y-116.92
X95.885Y-121.92
X96.52Y-86.36
X96.52Y-101.6
X97.79Y-66.04
X97.79Y-81.28
X98.472Y-107.95
X99.06Y-86.36
X99.06Y-101.6
X99.695Y-116.92
X99.695Y-121.92
X100.33Y-66.04
X100.33Y-81.28
X101.6Y-86.36
X101.6Y-101.6
X102.87Y-66.04
X102.87Y-81.28
X104.14Y-86.36
X104.14Y-101.6
X105.41Y-66.04
X105.41Y-81.28
X106.68Y-86.36
X106.68Y-101.6
X107.95Y-66.04
X107.95Y-81.28
X109.22Y-86.36
X109.22Y-101.6
X110.744Y-107.696
X110.744Y-110.236
X110.744Y-112.776
X112.776Y-86.36
X114.3Y-96.6
X114.3Y-101.6
X114.3Y-112.776
X117.776Y-86.36
X121.92Y-112.776
T7
X48.26Y-99.6
X48.26Y-101.6
X48.26Y-103.6
X84.868Y-127.0
X86.868Y-127.0
X88.868Y-127.0
X95.79Y-127.0
X97.79Y-127.0
X99.79Y-127.0
T8
X63.5Y-60.96
X66.04Y-60.96
X77.47Y-60.96
X80.01Y-60.96
X91.44Y-60.96
X93.98Y-60.96
X104.14Y-113.792
X104.14Y-116.332
X105.41Y-60.96
X107.95Y-60.96
X114.808Y-116.332
X117.348Y-116.332
T9
X117.13Y-70.41
X117.13Y-76.91
X121.63Y-70.41
X121.63Y-76.91
T10
X106.68Y-123.952
X111.76Y-123.952
T11
X48.26Y-97.5
X48.26Y-105.7
X82.768Y-127.0
X90.968Y-127.0
X93.69Y-127.0
X101.89Y-127.0
T12
X116.332Y-109.728
X122.174Y-116.332
T13
X50.8Y-63.5
X50.8Y-124.46
X119.38Y-63.5
X119.38Y-124.46
M30
